<?xml version="1.0" encoding="UTF-8" standalone="no"?>
<!-- Uploaded to: SVG Repo, www.svgrepo.com, Generator: SVG Repo Mixer Tools -->

<svg
   fill="#000000"
   version="1.1"
   id="Capa_1"
   viewBox="0 0 486.76099 288.98801"
   xml:space="preserve"
   sodipodi:docname="crossover.svg"
   width="486.76099"
   height="288.98801"
   inkscape:version="1.3.2 (091e20e, 2023-11-25, custom)"
   xmlns:inkscape="http://www.inkscape.org/namespaces/inkscape"
   xmlns:sodipodi="http://sodipodi.sourceforge.net/DTD/sodipodi-0.dtd"
   xmlns="http://www.w3.org/2000/svg"
   xmlns:svg="http://www.w3.org/2000/svg"><defs
   id="defs7" /><sodipodi:namedview
   id="namedview7"
   pagecolor="#ffffff"
   bordercolor="#000000"
   borderopacity="0.25"
   inkscape:showpageshadow="2"
   inkscape:pageopacity="0.0"
   inkscape:pagecheckerboard="0"
   inkscape:deskcolor="#d1d1d1"
   inkscape:zoom="1.6168066"
   inkscape:cx="243.381"
   inkscape:cy="144.42049"
   inkscape:window-width="1920"
   inkscape:window-height="1001"
   inkscape:window-x="-9"
   inkscape:window-y="-9"
   inkscape:window-maximized="1"
   inkscape:current-layer="Capa_1" />
<g
   id="g7"
   transform="translate(0,-75.134)"
   style="fill:#5f4a8b;fill-opacity:1">
	<path
   d="m 368.637,255.106 c -30.056,0 -54.508,24.452 -54.508,54.508 0,30.056 24.452,54.508 54.508,54.508 30.056,0 54.508,-24.452 54.508,-54.508 0,-30.055 -24.453,-54.508 -54.508,-54.508 z m 0,95.016 c -22.336,0 -40.508,-18.172 -40.508,-40.508 0,-22.336 18.172,-40.508 40.508,-40.508 22.336,0 40.508,18.172 40.508,40.508 0,22.336 -18.172,40.508 -40.508,40.508 z"
   id="path1"
   style="fill:#5f4a8b;fill-opacity:1" />
	<path
   d="m 113.877,255.106 c -30.056,0 -54.508,24.452 -54.508,54.508 0,30.056 24.452,54.508 54.508,54.508 30.056,0 54.507,-24.452 54.507,-54.508 0,-30.055 -24.451,-54.508 -54.507,-54.508 z m 0,95.016 c -22.336,0 -40.508,-18.172 -40.508,-40.508 0,-22.336 18.172,-40.508 40.508,-40.508 22.336,0 40.507,18.172 40.507,40.508 0,22.336 -18.171,40.508 -40.507,40.508 z"
   id="path2"
   style="fill:#5f4a8b;fill-opacity:1" />
	<path
   d="m 113.877,287.983 c -11.927,0 -21.63,9.703 -21.63,21.631 0,11.928 9.703,21.631 21.63,21.631 11.926,0 21.629,-9.703 21.629,-21.631 0,-11.927 -9.703,-21.631 -21.629,-21.631 z"
   id="path3"
   style="fill:#5f4a8b;fill-opacity:1" />
	<path
   d="m 368.637,287.983 c -11.927,0 -21.631,9.703 -21.631,21.631 0,11.928 9.704,21.631 21.631,21.631 11.927,0 21.63,-9.703 21.63,-21.631 0,-11.927 -9.703,-21.631 -21.63,-21.631 z"
   id="path4"
   style="fill:#5f4a8b;fill-opacity:1" />
	<path
   d="m 266.432,109.7 c -1.318,-1.808 -3.42,-2.877 -5.657,-2.877 H 157.544 c -1.97,0 -3.849,0.83 -5.175,2.286 -1.327,1.456 -1.978,3.404 -1.795,5.365 l 7.207,77.107 c 0.336,3.598 3.356,6.349 6.97,6.349 H 316.98 c 2.634,0 5.045,-1.479 6.24,-3.827 1.194,-2.348 0.969,-5.167 -0.583,-7.296 z m -97.593,49.757 79.792,24.474 h -77.504 z"
   id="path5"
   style="fill:#5f4a8b;fill-opacity:1" />
	<path
   d="m 183.018,211.374 h -17.689 c -3.866,0 -7,3.134 -7,7 0,3.866 3.134,7 7,7 h 17.689 c 3.866,0 7,-3.134 7,-7 0,-3.866 -3.134,-7 -7,-7 z"
   id="path6"
   style="fill:#5f4a8b;fill-opacity:1" />
	<path
   d="m 479.762,254.464 h -15.389 l -11.04,-44.351 c -0.592,-2.38 -2.386,-4.275 -4.729,-4.998 L 361.698,178.298 296.972,96.057 c -0.021,-0.026 0.021,0.025 0,0 v 0 C 286.036,82.76 269.889,75.134 252.669,75.134 H 74.371 c -12.685,0 -23.004,10.32 -23.004,23.006 0,6.939 3.093,13.167 7.969,17.389 L 30.94,183.931 c 0,0 -5.415,0 -5.421,0 v 0 c -0.036,0 0.034,-0.001 0,0 -2.878,0.04 -5.549,1.864 -6.528,4.745 -5.925,17.409 -8.929,35.723 -8.929,54.433 v 35.6 H 7 c -3.866,0 -7,3.134 -7,7 0,3.866 3.134,7 7,7 h 3.062 v 16.906 c 0,3.866 3.134,7 7,7 h 25.997 c 3.866,0 7,-3.134 7,-7 0,-35.189 28.629,-63.818 63.818,-63.818 35.189,0 63.818,28.629 63.818,63.818 v 11.174 c 0,3.866 3.134,7 7,7 h 113.121 c 3.866,0 7,-3.134 7,-7 v -11.174 c 0,-35.189 28.63,-63.818 63.82,-63.818 35.189,0 63.818,28.629 63.818,63.818 0,3.866 3.134,7 7,7 h 40.307 c 3.866,0 7,-3.134 7,-7 v -48.15 c 10e-4,-3.867 -3.133,-7.001 -6.999,-7.001 z m -410.5,-126.335 54.896,19.292 3.413,36.51 H 46.097 Z m 299.375,103.667 c -42.91,0 -77.82,34.909 -77.82,77.818 v 4.174 h -83.193 l -10.015,-21.08 h 79.39 c 3.866,0 7,-3.134 7,-7 0,-3.866 -3.134,-7 -7,-7 h -91.72 c -11.982,-27.574 -39.47,-46.912 -71.401,-46.912 -40.549,0 -73.955,31.178 -77.506,70.818 h -12.31 v -59.506 c 0,-15.479 2.245,-30.65 6.663,-45.178 h 104.532 c 1.97,0 3.849,-0.83 5.175,-2.286 1.327,-1.456 1.978,-3.404 1.795,-5.365 l -6.464,-69.155 c 3.688,-0.198 6.62,-3.242 6.62,-6.98 0,-3.866 -3.134,-7 -7,-7 h -61.01 c -4.965,0 -9.004,-4.039 -9.004,-9.004 0,-4.966 4.04,-9.006 9.004,-9.006 h 178.298 c 13.017,0 25.224,5.765 33.458,15.776 l 65.918,83.762 c 0.879,1.117 2.078,1.941 3.437,2.359 l 85.219,26.297 9.245,37.14 h -26.47 c -14.081,-14.001 -33.465,-22.672 -54.841,-22.672 z m 104.125,70.818 h -26.619 c -1.116,-12.453 -5.181,-24.068 -11.485,-34.147 l 38.104,-0.004 z"
   id="path7"
   style="fill:#5f4a8b;fill-opacity:1" />
</g>
<rect
   x="405.38101"
   y="336.49399"
   width="1"
   height="0"
   id="rect7"
   style="fill:#5f4a8b;fill-opacity:1" />
</svg>
