<?xml version="1.0" encoding="UTF-8" standalone="no"?>
<!-- Uploaded to: SVG Repo, www.svgrepo.com, Generator: SVG Repo Mixer Tools -->

<svg
   width="550"
   height="750"
   viewBox="0 0 11 15"
   version="1.1"
   id="svg1"
   sodipodi:docname="pointer.svg"
   inkscape:version="1.3.2 (091e20e, 2023-11-25, custom)"
   xmlns:inkscape="http://www.inkscape.org/namespaces/inkscape"
   xmlns:sodipodi="http://sodipodi.sourceforge.net/DTD/sodipodi-0.dtd"
   xmlns="http://www.w3.org/2000/svg"
   xmlns:svg="http://www.w3.org/2000/svg">
  <defs
     id="defs1" />
  <sodipodi:namedview
     id="namedview1"
     pagecolor="#ffffff"
     bordercolor="#000000"
     borderopacity="0.25"
     inkscape:showpageshadow="2"
     inkscape:pageopacity="0.0"
     inkscape:pagecheckerboard="0"
     inkscape:deskcolor="#d1d1d1"
     inkscape:zoom="0.6956163"
     inkscape:cx="296.14027"
     inkscape:cy="450.67949"
     inkscape:window-width="1920"
     inkscape:window-height="1001"
     inkscape:window-x="-9"
     inkscape:window-y="-9"
     inkscape:window-maximized="1"
     inkscape:current-layer="svg1" />
  <path
     fill="#444444"
     d="M 9.6,5 C 9.4,5 9.1,5 9,5 9,4.8 8.8,4.4 8.6,4.2 8.4,4 8,3.8 7.5,3.8 7.3,3.8 7.1,3.8 6.9,3.9 6.8,3.7 6.7,3.6 6.6,3.4 6.4,3.2 6.1,3 5.5,3 5.3,3 5.1,3 5,3.1 V 1.4 C 5,0.8 4.6,0 3.6,0 3.2,0 2.8,0.2 2.5,0.4 2,1 2,1.8 2,1.8 V 6.1 C 1.4,6.2 0.9,6.4 0.6,6.7 0,7.4 0,8.3 0,9.5 0,9.7 0,10 0,10.2 0,11.6 0.7,12.3 1.4,13 l 0.3,0.4 C 3,14.6 4.1,15 6.8,15 9.7,15 11,13.4 11,9.9 V 7.4 C 11,6.7 10.8,5.3 9.6,5 Z M 10,7.4 V 10 C 10,13.4 8.7,14.1 6.8,14.1 4.4,14.1 3.5,13.8 2.5,12.8 2.4,12.7 2.3,12.6 2.1,12.4 1.4,11.6 1,11.2 1,10.2 1,10 1,9.7 1,9.5 1,8.5 1,7.8 1.3,7.4 1.4,7.3 1.7,7.2 2,7.2 V 7.7 L 1.7,9.2 c 0,0.1 0,0.1 0.1,0.2 0.1,0.1 0.2,0 0.2,0 L 3,8.2 C 3,8.1 3,8 3,8 V 1.8 C 3,1.7 3,1.3 3.2,1.1 3.3,1.1 3.4,1 3.6,1 3.9,1 4,1.3 4,1.4 v 3.1 c 0,0 0,0 0,0 V 5.7 C 4,6 4.2,6.3 4.5,6.3 4.8,6.3 5,6 5,5.8 V 4.5 c 0,0 0,0 0,0 C 5,4.4 5.1,4 5.5,4 5.8,4 6,4.1 6,4.4 V 5.7 C 6,6 6.2,6.3 6.5,6.3 6.8,6.3 7,6 7,5.8 V 5.1 C 7,5 7.1,4.8 7.5,4.8 7.7,4.8 7.8,4.9 7.8,4.9 8,5 8,5.3 8,5.3 V 6.1 C 8,6.4 8.2,6.6 8.4,6.6 8.7,6.6 8.9,6.5 8.9,6.2 8.9,6.1 9,6 9.1,5.9 c 0,0 0.1,0 0.2,0 0.6,0.2 0.7,1.2 0.7,1.5 0,-0.1 0,-0.1 0,0 z"
     id="path1"
     style="fill:#5f4a8b;fill-opacity:1" />
</svg>
