<?xml version="1.0" encoding="UTF-8" standalone="no"?>
<svg
   version="1.1"
   x="0px"
   y="0px"
   viewBox="0 0 93.023003 80.780998"
   enable-background="new 0 0 100 100"
   xml:space="preserve"
   id="svg5"
   sodipodi:docname="blot.svg"
   inkscape:version="1.3.2 (091e20e, 2023-11-25, custom)"
   width="93.023003"
   height="80.780998"
   xmlns:inkscape="http://www.inkscape.org/namespaces/inkscape"
   xmlns:sodipodi="http://sodipodi.sourceforge.net/DTD/sodipodi-0.dtd"
   xmlns:xlink="http://www.w3.org/1999/xlink"
   xmlns="http://www.w3.org/2000/svg"
   xmlns:svg="http://www.w3.org/2000/svg"><defs
     id="defs5" /><sodipodi:namedview
     id="namedview5"
     pagecolor="#ffffff"
     bordercolor="#000000"
     borderopacity="0.25"
     inkscape:showpageshadow="2"
     inkscape:pageopacity="0.0"
     inkscape:pagecheckerboard="0"
     inkscape:deskcolor="#d1d1d1"
     inkscape:zoom="3.148"
     inkscape:cx="59.879288"
     inkscape:cy="44.631512"
     inkscape:window-width="1920"
     inkscape:window-height="1001"
     inkscape:window-x="-9"
     inkscape:window-y="-9"
     inkscape:window-maximized="1"
     inkscape:current-layer="svg5" /><g
     id="g4"
     style="fill:#5f4a8b;fill-opacity:1"
     transform="translate(-3.4882715,-9.6091442)"><defs
       id="defs1"><rect
         id="b"
         width="100"
         height="100"
         x="0"
         y="0" /></defs><clipPath
       id="a"><use
         xlink:href="#b"
         overflow="visible"
         id="use1" /></clipPath><path
       clip-path="url(#a)"
       d="m 83.301758,34.346191 c -9.695313,-0.35205 -10.375,-7.129394 -10.381836,-11.830078 -0.0088,-4.702148 -3.581055,-8.503906 -7.999023,-8.503906 -2.09668,0 -4.00293,0.858887 -5.429688,2.261719 C 52.035156,22.26416 47.275391,16.624024 45.906738,14.597168 45.807617,14.432129 45.70459,14.270996 45.597656,14.111817 45.530762,14 45.496582,13.936035 45.496582,13.936035 l -0.0039,0.01904 c -1.916998,-2.73486 -5.023932,-4.4711882 -8.50733,-4.338864 -5.239747,0.1977539 -9.463868,4.693848 -9.75879,10.259766 -0.07373,1.397949 -0.06787,2.297851 1.030274,5.286132 1.09668,2.987793 -1.211426,5.154786 -4.27002,3.183106 -2.484375,-1.602051 -5.37207,-2.976074 -8.518066,-2.922363 -6.6601562,0.115234 -12.0400391,5.990234 -11.9799805,13.070312 0.031738,3.708008 1.5288086,7.042969 3.9047852,9.383789 1.5361328,1.512207 1.8920898,3.978516 0.8500977,5.90918 -0.9360352,1.736328 -1.453125,3.772461 -1.453125,5.62793 0,5.955078 4.5400396,10.782226 10.1411136,10.782226 7.189941,0 12.819824,1.319336 12.854004,12.575196 0.01318,4.175781 3.243164,7.677734 7.170898,7.618164 3.210938,-0.04687 5.902832,-2.372071 6.71582,-5.521485 l 0.0015,0.002 c 1.366699,-4.185547 6.560547,-8.477539 17.336914,-1.137695 0.102539,0.07324 0.207031,0.145508 0.313477,0.213867 9.76e-4,9.77e-4 9.76e-4,9.77e-4 0.002,0.002 1.098633,0.707031 2.382812,1.118164 3.757812,1.12793 3.888672,0.0293 7.16504,-3.223633 7.393555,-7.350586 0.03223,-0.572266 0.0049,-1.131836 -0.07422,-1.672852 -0.634765,-8.950195 10.810547,-5.533203 11.340821,-5.342773 9.76e-4,9.77e-4 9.76e-4,0 0.0029,9.77e-4 0.504883,0.194336 1.058594,0.280273 1.637696,0.230468 1.879882,-0.165039 3.391601,-1.794921 3.521484,-3.796875 0.118164,-1.823242 -0.887695,-3.416015 -2.354492,-4.070312 l 9.76e-4,-9.77e-4 c -8.21289,-3.720703 2.348633,-15.077148 2.348633,-15.077148 l -0.002,9.77e-4 c 1.267578,-1.450196 2.042969,-3.39209 2.042969,-5.526856 0,-4.487305 -3.420899,-8.124024 -7.640625,-8.124024 m -73.0752,27.100004 c -0.3027349,0 -0.5488286,-0.260742 -0.5507817,-0.582031 v -0.04102 c 0,-0.323242 0.246582,-0.584961 0.5507817,-0.584961 0.304199,0 0.549804,0.261719 0.549804,0.584961 v 0.03418 c 0.0024,0.322266 -0.242676,0.586914 -0.546875,0.588867 h -0.0029 z m 5.623046,5.474609 c -0.04394,0.06738 -0.10205,0.120118 -0.165039,0.15625 0,0 -0.02686,0.01465 -0.07813,0.03809 -0.05176,0.02441 -0.126953,0.05078 -0.226074,0.08691 -0.04883,0.01563 -0.104004,0.03418 -0.163574,0.04883 -0.06006,0.0127 -0.125,0.02344 -0.195313,0.03418 -0.139648,0.01758 -0.300781,0.04004 -0.474121,0.02637 -0.08691,-0.002 -0.175781,-0.01172 -0.269531,-0.01758 -0.09229,-0.01563 -0.187988,-0.03223 -0.285156,-0.05469 -0.198242,-0.03613 -0.394043,-0.117188 -0.598145,-0.195313 -0.101074,-0.04297 -0.201171,-0.09375 -0.302734,-0.141601 -0.05127,-0.02441 -0.102051,-0.04883 -0.15332,-0.0752 -0.04883,-0.0293 -0.09863,-0.05957 -0.148926,-0.08789 -0.09814,-0.06152 -0.201172,-0.115235 -0.296875,-0.183594 -0.09521,-0.06836 -0.189941,-0.137695 -0.286133,-0.207031 -0.09375,-0.06934 -0.182129,-0.149414 -0.270996,-0.226563 -0.08984,-0.07519 -0.173828,-0.15625 -0.254883,-0.240234 -0.166015,-0.163086 -0.313965,-0.338867 -0.452148,-0.512695 -0.06885,-0.08692 -0.128906,-0.178711 -0.189942,-0.266602 -0.06006,-0.08887 -0.120117,-0.173828 -0.168945,-0.263672 -0.102051,-0.176758 -0.195801,-0.342773 -0.265137,-0.507812 -0.03711,-0.08106 -0.07178,-0.157227 -0.103027,-0.233399 -0.02979,-0.08008 -0.0581,-0.154297 -0.08105,-0.225586 -0.02393,-0.07129 -0.0459,-0.136719 -0.06689,-0.198242 -0.01807,-0.05957 -0.02783,-0.106445 -0.03906,-0.155273 -0.04199,-0.184571 -0.06201,-0.292969 -0.06201,-0.292969 -0.04687,-0.250977 0.105957,-0.493164 0.342285,-0.543945 0.166992,-0.03516 0.331055,0.03613 0.428711,0.168945 0,0 0.06299,0.08789 0.167969,0.242187 0.02734,0.03711 0.0542,0.08594 0.08496,0.125977 0.03027,0.03711 0.06348,0.07813 0.09912,0.12207 0.03516,0.04297 0.07031,0.08887 0.106933,0.136719 0.04102,0.0498 0.08496,0.101563 0.131348,0.155273 0.08691,0.110352 0.190918,0.21875 0.299805,0.333985 0.05127,0.06055 0.110839,0.115234 0.170898,0.170898 0.06104,0.05664 0.115234,0.119141 0.181152,0.172852 0.06494,0.05566 0.129883,0.110351 0.193848,0.167969 0.06299,0.05957 0.137207,0.106445 0.205078,0.161132 0.0669,0.05567 0.137207,0.109375 0.210938,0.155274 0.07422,0.04785 0.143066,0.102539 0.218261,0.148437 0.149903,0.08984 0.296875,0.181641 0.450684,0.256836 l 0.112305,0.05957 0.114746,0.05078 c 0.07617,0.03418 0.148925,0.07129 0.224121,0.101562 0.151855,0.05078 0.293945,0.118164 0.434082,0.166016 0.138672,0.05664 0.270996,0.111328 0.39209,0.161133 0.125,0.05566 0.239746,0.107422 0.34082,0.152343 0.05225,0.02637 0.101074,0.05078 0.145996,0.07617 0.0459,0.01953 0.08887,0.04102 0.126953,0.06055 0.07813,0.04395 0.140137,0.07422 0.183106,0.104492 0.04297,0.02637 0.06592,0.04297 0.06592,0.04297 l 0.04883,0.03711 c 0.216308,0.161132 0.268066,0.479492 0.11621,0.708007 M 37.297363,12.483887 c 0.05225,-0.23584 0.273438,-0.382813 0.495118,-0.329102 l 0.03808,0.01025 c 0.222168,0.05811 0.356934,0.294922 0.303223,0.529785 -0.04639,0.201172 -0.214355,0.334961 -0.400391,0.334961 -0.03271,0 -0.06592,-0.0039 -0.09766,-0.01172 l -0.0293,-0.0068 c -0.221679,-0.05518 -0.359863,-0.291015 -0.309082,-0.527343 m -2.035644,75.233886 c -0.0039,0.002 -0.01025,0.0049 -0.01416,0.0068 0,0 -0.04004,0.0166 -0.08984,0.01758 -0.05029,0.002 -0.111328,-0.01367 -0.166016,-0.04297 -0.05615,-0.02832 -0.10791,-0.06543 -0.144043,-0.10254 -0.03613,-0.03516 -0.05615,-0.06933 -0.05615,-0.06933 -0.102051,-0.173829 -0.05176,-0.402344 0.111328,-0.510743 0.03174,-0.02051 0.06787,-0.03516 0.101562,-0.0459 0,0 0.03711,-0.0088 0.0874,-0.0078 0.04883,9.77e-4 0.11084,0.0127 0.168945,0.03418 0.06006,0.01953 0.112793,0.05371 0.147949,0.09277 0.03467,0.03711 0.05274,0.0791 0.05274,0.0791 0.0874,0.209961 -0.002,0.456055 -0.199707,0.548828 m 0.889648,-74.799804 c -0.0459,0.01221 -0.101562,0.02002 -0.154785,0.03613 -0.04785,0.01611 -0.101074,0.03369 -0.157227,0.05371 -0.05566,0.01904 -0.113769,0.03711 -0.175781,0.05518 -0.06299,0.02197 -0.130859,0.05078 -0.200195,0.07715 -0.06982,0.02881 -0.142578,0.05371 -0.21582,0.08594 -0.07275,0.03369 -0.146973,0.06982 -0.225098,0.105957 -0.07666,0.03076 -0.153809,0.07373 -0.230957,0.118164 -0.07715,0.04492 -0.157715,0.08203 -0.23584,0.13086 -0.154297,0.103027 -0.316894,0.195801 -0.467285,0.317871 -0.158691,0.10498 -0.298828,0.24414 -0.447754,0.367187 -0.138184,0.137696 -0.280273,0.269043 -0.403809,0.416993 l -0.09521,0.105957 c -0.03125,0.03613 -0.05811,0.07471 -0.08789,0.111816 -0.05713,0.0752 -0.116211,0.145996 -0.169922,0.220215 -0.09717,0.155761 -0.207031,0.293945 -0.292969,0.439941 -0.04541,0.07178 -0.09521,0.137207 -0.140136,0.204102 -0.04297,0.06787 -0.08105,0.134765 -0.125,0.196777 -0.08789,0.124023 -0.161133,0.243164 -0.231934,0.350098 -0.03711,0.05176 -0.07129,0.102051 -0.105957,0.147949 -0.0293,0.04687 -0.05908,0.08984 -0.08496,0.129883 -0.05713,0.07813 -0.101074,0.14209 -0.137207,0.184082 -0.0332,0.04297 -0.0542,0.06494 -0.0542,0.06494 l -0.0376,0.04102 c -0.164062,0.177246 -0.432129,0.178222 -0.598144,0.0039 -0.06396,-0.06689 -0.104004,-0.150879 -0.119141,-0.23877 0,0 -0.0059,-0.03418 -0.01074,-0.09619 -0.0073,-0.06299 -0.0093,-0.152832 -0.01318,-0.270996 0,-0.05762 -9.76e-4,-0.123047 0.002,-0.192871 0.0059,-0.06982 0.01709,-0.144043 0.02783,-0.224121 0.02441,-0.158692 0.05225,-0.340821 0.117188,-0.527832 0.02783,-0.09521 0.06396,-0.190918 0.09814,-0.292969 0.04395,-0.09717 0.08887,-0.197266 0.139649,-0.297852 0.09326,-0.207031 0.233398,-0.399414 0.36914,-0.60205 0.07324,-0.09814 0.152832,-0.19336 0.230957,-0.29004 0.03906,-0.04932 0.07813,-0.09912 0.120118,-0.145019 L 32.16948,13.56788 c 0.09033,-0.08887 0.174316,-0.187012 0.271972,-0.269043 0.09717,-0.08203 0.194336,-0.165039 0.291016,-0.248047 0.100098,-0.07861 0.206055,-0.149902 0.309082,-0.222656 0.101074,-0.0752 0.209961,-0.138184 0.316894,-0.200195 0.213379,-0.12793 0.434082,-0.227051 0.648438,-0.319825 0.10791,-0.04394 0.216797,-0.07813 0.322754,-0.114257 0.10498,-0.03564 0.208984,-0.06982 0.312988,-0.09082 0.103027,-0.02295 0.203125,-0.0459 0.298828,-0.06787 0.09717,-0.02002 0.19336,-0.02637 0.28418,-0.03809 0.09082,-0.01025 0.175781,-0.02197 0.259765,-0.02686 0.0874,-0.0044 0.169434,-0.0073 0.245118,-0.0063 0.07617,0 0.147949,0 0.21289,0 0.06348,0.0029 0.113281,0.01025 0.16211,0.01514 0.193359,0.02393 0.304199,0.04101 0.304199,0.04101 0.21582,0.0332 0.365723,0.247071 0.334961,0.477051 -0.02393,0.172852 -0.144043,0.307129 -0.294922,0.347168 0,0 -0.10791,0.02881 -0.29834,0.07373 m 3.869141,74.323242 c 0,0 -0.104981,0.257812 -0.38086,0.470703 -0.06689,0.05566 -0.145019,0.107422 -0.22998,0.15332 -0.08496,0.04883 -0.180176,0.08496 -0.279297,0.122071 -0.09863,0.03223 -0.200684,0.07129 -0.307617,0.09766 -0.105957,0.03125 -0.215332,0.05371 -0.325196,0.07617 -0.21875,0.04004 -0.439941,0.0625 -0.647949,0.06445 -0.208008,9.76e-4 -0.400879,-0.01172 -0.563965,-0.04199 -0.08105,-0.0127 -0.157226,-0.02441 -0.225097,-0.04199 -0.06885,-0.0166 -0.125977,-0.03027 -0.167969,-0.04492 -0.08691,-0.0293 -0.137207,-0.04883 -0.137207,-0.04883 -0.152832,-0.05957 -0.231934,-0.24121 -0.174805,-0.404296 0.03418,-0.09961 0.112793,-0.170899 0.203125,-0.195313 0,0 0.05176,-0.01465 0.141114,-0.03418 0.04687,-0.0088 0.09668,-0.02148 0.151855,-0.03613 0.05713,-0.0127 0.120117,-0.02832 0.188965,-0.04492 0.06982,-0.0166 0.145019,-0.03613 0.225098,-0.05469 0.0791,-0.01855 0.160644,-0.04297 0.246093,-0.06348 0.08399,-0.02539 0.170899,-0.0459 0.25879,-0.07422 0.08789,-0.02148 0.174804,-0.05371 0.263183,-0.0791 0.174805,-0.05664 0.347656,-0.117187 0.508789,-0.176758 0.15918,-0.06641 0.312012,-0.112304 0.452149,-0.140625 0.06982,-0.0127 0.136718,-0.02148 0.196777,-0.02832 0.06103,-0.0049 0.119141,-0.0039 0.164062,-0.0068 0.09522,0.002 0.157227,0.01269 0.157227,0.01269 l 0.01904,0.0029 c 0.190918,0.0332 0.319824,0.225586 0.288574,0.428711 -0.0049,0.0293 -0.01367,0.06055 -0.0249,0.08789 m 28.524414,-5.884766 c 0,0 -0.04102,0.08789 -0.128906,0.227539 -0.04395,0.07129 -0.103516,0.151368 -0.177735,0.235352 -0.07324,0.08594 -0.160156,0.180664 -0.264648,0.267578 -0.05078,0.0459 -0.106446,0.08984 -0.164063,0.136719 -0.05957,0.04101 -0.12207,0.08594 -0.1875,0.126953 -0.06543,0.04394 -0.133789,0.08496 -0.206054,0.120117 -0.07227,0.03809 -0.147461,0.07519 -0.223633,0.111328 -0.15625,0.0625 -0.314453,0.136719 -0.483399,0.186524 -0.166015,0.06055 -0.34082,0.100586 -0.513672,0.142578 -0.174804,0.0332 -0.348632,0.06543 -0.52246,0.08105 -0.173828,0.01953 -0.345703,0.02246 -0.510743,0.02442 -0.165039,-0.0059 -0.324218,-0.01074 -0.474609,-0.03125 -0.150391,-0.01856 -0.291016,-0.03613 -0.418945,-0.06934 -0.126953,-0.02637 -0.246094,-0.05566 -0.351563,-0.09082 -0.05273,-0.0166 -0.101562,-0.03125 -0.146484,-0.04492 -0.04297,-0.01563 -0.07813,-0.03027 -0.112305,-0.04394 -0.133789,-0.05664 -0.208984,-0.08984 -0.208984,-0.08984 -0.146485,-0.06738 -0.213868,-0.24707 -0.151368,-0.402343 0.04687,-0.118165 0.155274,-0.188477 0.269532,-0.186524 0,0 0.08203,0.002 0.226562,0.0098 0.03418,9.76e-4 0.0752,0.0068 0.116211,0.0068 0.03906,0 0.08203,-9.77e-4 0.126953,-0.002 0.0459,-9.77e-4 0.09375,9.76e-4 0.142578,0.002 0.05176,-0.002 0.105469,-0.0039 0.163086,-0.0059 0.113281,-0.0029 0.234375,-0.01074 0.363281,-0.02148 0.12793,-0.0068 0.261719,-0.03223 0.399415,-0.04687 0.136719,-0.02637 0.279297,-0.04297 0.419922,-0.08008 0.143554,-0.02539 0.284179,-0.07227 0.425781,-0.106445 0.139648,-0.04785 0.280273,-0.08887 0.414062,-0.142578 0.137696,-0.04785 0.265625,-0.110352 0.392578,-0.16211 0.122071,-0.06543 0.246094,-0.115234 0.357422,-0.174805 0.116211,-0.05273 0.226563,-0.103515 0.327149,-0.151367 0.104492,-0.0459 0.200195,-0.08691 0.285156,-0.124023 0.08887,-0.0332 0.167969,-0.06348 0.232422,-0.08984 0.131836,-0.04883 0.217773,-0.06836 0.217773,-0.06836 l 0.02441,-0.0068 c 0.166016,-0.03809 0.330079,0.07226 0.366211,0.248047 0.0166,0.07519 0.0059,0.15039 -0.02344,0.214843 M 87.386719,39.998047 c -0.0127,-0.01709 -0.02637,-0.03906 -0.04102,-0.05713 -0.01367,-0.01709 -0.0293,-0.03516 -0.0459,-0.05371 -0.03223,-0.03906 -0.06836,-0.08398 -0.107422,-0.132324 -0.03906,-0.04883 -0.08203,-0.102051 -0.12793,-0.154785 -0.04297,-0.05615 -0.09473,-0.108887 -0.141601,-0.167969 -0.05274,-0.0542 -0.100586,-0.114258 -0.155274,-0.168945 -0.0498,-0.05908 -0.109375,-0.110352 -0.161133,-0.167969 -0.05664,-0.05322 -0.109375,-0.109375 -0.166992,-0.15918 -0.05469,-0.0498 -0.111328,-0.100098 -0.164062,-0.147949 -0.05664,-0.04297 -0.105469,-0.09131 -0.153321,-0.137207 -0.04687,-0.04785 -0.08887,-0.09766 -0.126953,-0.146973 -0.03711,-0.0498 -0.06934,-0.102051 -0.09961,-0.148926 -0.0293,-0.04785 -0.05078,-0.09912 -0.07227,-0.135742 -0.01855,-0.04346 -0.03418,-0.07617 -0.04394,-0.103027 -0.0098,-0.02637 -0.01367,-0.04199 -0.01367,-0.04199 l -0.01465,-0.05225 c -0.06641,-0.236817 0.05859,-0.48584 0.27832,-0.562012 0,0 0.01563,-0.0059 0.04394,-0.01074 0.0293,-0.0083 0.06836,-0.01221 0.121094,-0.01807 0.101563,-0.0073 0.245117,0 0.398438,0.05469 0.07813,0.02539 0.157226,0.06396 0.237304,0.111328 0.08106,0.0459 0.15625,0.11084 0.233399,0.177734 0.07422,0.07031 0.15332,0.140137 0.223632,0.222168 0.0752,0.07813 0.142579,0.165039 0.209961,0.251953 0.129883,0.177735 0.241211,0.369141 0.327149,0.557129 0.04102,0.09473 0.08008,0.187012 0.110351,0.277832 0.0293,0.08984 0.05469,0.174805 0.07227,0.256836 0.01953,0.07813 0.03418,0.15625 0.04394,0.227051 0.0098,0.07129 0.0166,0.128906 0.0166,0.170898 0.002,0.08838 9.76e-4,0.140137 9.76e-4,0.140137 -0.0068,0.200195 -0.164062,0.35791 -0.352539,0.351074 -0.09863,-0.0029 -0.186523,-0.05078 -0.246093,-0.124023 0,0 -0.03223,-0.03906 -0.08301,-0.10791 m 1.137695,1.400879 c -0.01855,0.228027 -0.199219,0.399902 -0.411133,0.399902 -0.01172,0 -0.02344,-9.77e-4 -0.03711,-0.002 -0.226563,-0.021 -0.394531,-0.234863 -0.374024,-0.476074 l 0.411133,0.03906 -0.411133,-0.04785 c 0,-9.77e-4 9.77e-4,-0.01514 0.0029,-0.01611 0.01953,-0.240722 0.220703,-0.420898 0.447266,-0.396972 0.227539,0.02197 0.394531,0.234863 0.374023,0.47705 l -0.412109,-0.02686 z"
       id="path1"
       style="fill:#5f4a8b;fill-opacity:1" /><path
       clip-path="url(#a)"
       d="m 19.902344,20.462891 c 1.11914,0 2.025879,-0.963868 2.025879,-2.153809 0,-1.188965 -0.906739,-2.15332 -2.025879,-2.15332 -1.119141,0 -2.025879,0.964355 -2.025879,2.15332 0,1.189941 0.906738,2.153809 2.025879,2.153809 m -1.095215,-3.286133 c 0.08838,-0.119629 0.243164,-0.242676 0.415039,-0.328614 0.04395,-0.021 0.08789,-0.04004 0.132324,-0.05615 0.04297,-0.01904 0.08789,-0.0293 0.13086,-0.04199 0.08594,-0.021 0.167968,-0.0332 0.237793,-0.03613 0.03516,-0.0029 0.06934,-0.002 0.09912,-9.76e-4 0.03125,-9.77e-4 0.05518,9.76e-4 0.07227,0.0029 0.03564,0.0049 0.05664,0.0083 0.05664,0.0083 0.08301,0.01074 0.14209,0.09082 0.131348,0.178711 -0.0083,0.07129 -0.05908,0.125 -0.122071,0.138184 0,0 -0.021,0.0039 -0.05713,0.01074 -0.01904,0.002 -0.04004,0.0073 -0.05908,0.01221 -0.021,0.0049 -0.04297,0.0098 -0.0708,0.01904 -0.106934,0.02881 -0.244141,0.08008 -0.370118,0.152832 -0.126953,0.07129 -0.239257,0.164062 -0.328125,0.231933 -0.04492,0.03516 -0.08301,0.06396 -0.108886,0.08496 -0.02686,0.02002 -0.04492,0.03125 -0.04492,0.03125 l -0.01123,0.0068 c -0.07568,0.04492 -0.170898,0.01709 -0.213867,-0.06396 -0.02295,-0.04297 -0.02588,-0.0918 -0.01221,-0.135742 0,0 0.03223,-0.09717 0.123047,-0.214355"
       id="path2"
       style="fill:#5f4a8b;fill-opacity:1" /><path
       clip-path="url(#a)"
       d="m 80.262695,75.554687 c -2.690429,0 -4.87207,1.958985 -4.87207,4.375977 0,2.416016 2.181641,4.375 4.87207,4.375 2.691407,0 4.873047,-1.958984 4.873047,-4.375 0,-2.416992 -2.18164,-4.375977 -4.873047,-4.375977 m -0.480468,1.894532 c 0,0 -0.06738,0.01367 -0.184571,0.03906 -0.0293,0.0049 -0.06055,0.01074 -0.09668,0.0166 -0.02832,0.0098 -0.05957,0.02051 -0.0918,0.03223 -0.06543,0.01953 -0.137696,0.03809 -0.222657,0.07715 -0.04101,0.0166 -0.08398,0.03223 -0.127929,0.0498 -0.04297,0.02051 -0.08691,0.04395 -0.131836,0.06641 -0.0459,0.02148 -0.0918,0.04492 -0.135742,0.07519 -0.04492,0.02734 -0.09082,0.05469 -0.138672,0.08301 -0.08789,0.06836 -0.181641,0.129883 -0.265625,0.208984 -0.09082,0.07129 -0.167969,0.161133 -0.249024,0.244141 -0.07129,0.09473 -0.15332,0.177734 -0.213867,0.27832 -0.07031,0.0918 -0.117187,0.197266 -0.173828,0.291992 -0.04394,0.101563 -0.101562,0.19336 -0.135742,0.29004 -0.01953,0.04785 -0.04004,0.09277 -0.06055,0.137695 -0.0166,0.0459 -0.0332,0.08984 -0.04883,0.131836 -0.03613,0.08496 -0.06152,0.166015 -0.08496,0.238281 -0.01074,0.03711 -0.02539,0.07129 -0.03711,0.102539 -0.0098,0.03223 -0.0166,0.0625 -0.02539,0.08887 -0.03223,0.108399 -0.05957,0.173828 -0.05957,0.173828 l -0.0166,0.04199 c -0.06348,0.151368 -0.230469,0.22168 -0.374023,0.154297 -0.08106,-0.03808 -0.137696,-0.111328 -0.160157,-0.196289 0,0 -0.02051,-0.07813 -0.04101,-0.219726 -0.01172,-0.07031 -0.02051,-0.157227 -0.01758,-0.257813 0,-0.09961 -9.77e-4,-0.214844 0.02148,-0.336914 0.0088,-0.06055 0.01758,-0.125 0.03125,-0.191406 0.01563,-0.06445 0.0332,-0.131836 0.05469,-0.199219 0.03418,-0.139648 0.101562,-0.273437 0.163086,-0.415039 0.07715,-0.132813 0.151367,-0.274414 0.25,-0.401367 0.08887,-0.133789 0.198242,-0.253906 0.30664,-0.373047 0.119141,-0.107422 0.233399,-0.219727 0.362305,-0.308594 0.12207,-0.100586 0.260742,-0.166992 0.386718,-0.242187 0.133789,-0.05957 0.258789,-0.125977 0.388672,-0.15918 0.06445,-0.01856 0.125,-0.03809 0.185547,-0.05566 0.06055,-0.01465 0.120117,-0.02539 0.175781,-0.03418 0.110352,-0.02344 0.22168,-0.03223 0.319336,-0.03613 0.04785,-0.002 0.09277,-0.0039 0.134766,-0.0059 0.03613,0.0029 0.06934,0.0049 0.09766,0.0068 0.119141,0.01172 0.1875,0.01953 0.1875,0.01953 0.15332,0.01465 0.264649,0.158203 0.250977,0.320313 -0.01172,0.133789 -0.106446,0.238281 -0.222656,0.263672 m 1.043945,0.0068 c -0.03418,0 -0.06934,-0.0068 -0.102539,-0.02149 l -0.01758,-0.0068 c -0.142578,-0.05762 -0.212891,-0.226562 -0.160156,-0.377929 0.05371,-0.151368 0.21289,-0.226563 0.354492,-0.169922 l 0.02734,0.01172 c 0.140625,0.06055 0.209961,0.230468 0.154297,0.379882 -0.04297,0.114258 -0.147461,0.184571 -0.255859,0.184571"
       id="path3"
       style="fill:#5f4a8b;fill-opacity:1" /><path
       clip-path="url(#a)"
       d="m 94.142578,68.676758 c -1.30957,0 -2.370117,1.127929 -2.370117,2.519531 0,1.391602 1.060547,2.519531 2.370117,2.519531 1.308594,0 2.369141,-1.127929 2.369141,-2.519531 0,-1.391602 -1.060547,-2.519531 -2.369141,-2.519531 m 0.0059,1.186523 c 0,0 -0.02148,0.0059 -0.05762,0.01465 -0.01953,0.0039 -0.04004,0.0088 -0.05664,0.0166 -0.01953,0.0059 -0.04004,0.01074 -0.06641,0.02148 -0.101563,0.03125 -0.229493,0.08496 -0.348633,0.154297 -0.0293,0.01855 -0.05859,0.03418 -0.08691,0.05469 -0.02832,0.01758 -0.05371,0.04004 -0.08106,0.05762 -0.05176,0.03906 -0.101563,0.07422 -0.145508,0.104492 -0.04394,0.03027 -0.08301,0.05567 -0.111328,0.07324 -0.02832,0.01758 -0.04687,0.02637 -0.04687,0.02637 l -0.02539,0.01074 c -0.110351,0.04785 -0.236328,-0.0078 -0.28125,-0.124023 -0.01855,-0.04785 -0.02051,-0.09766 -0.0098,-0.143555 0,0 0.02637,-0.107422 0.118164,-0.231445 0.04394,-0.06348 0.105469,-0.12793 0.179687,-0.188477 0.07422,-0.05859 0.161133,-0.111328 0.25,-0.15625 0.04492,-0.02148 0.09082,-0.04102 0.136719,-0.05664 0.0459,-0.01953 0.09277,-0.0293 0.137696,-0.04101 0.08984,-0.02246 0.174804,-0.03223 0.249023,-0.03418 0.03516,-9.76e-4 0.07031,0 0.102539,9.77e-4 0.0332,0.002 0.05762,0.0039 0.07422,0.0078 0.03613,0.0068 0.05664,0.01074 0.05664,0.01074 0.111329,0.02148 0.184571,0.132813 0.164063,0.25 -0.01367,0.08691 -0.07617,0.152344 -0.151368,0.171875"
       id="path4"
       style="fill:#5f4a8b;fill-opacity:1" /></g></svg>
