<?xml version="1.0" encoding="UTF-8" standalone="no"?>
<!-- Uploaded to: SVG Repo, www.svgrepo.com, Generator: SVG Repo Mixer Tools -->

<svg
   width="714.375"
   height="734.375"
   viewBox="0 0 457.2 470"
   version="1.1"
   id="svg1"
   sodipodi:docname="diving-helmet.svg"
   inkscape:version="1.3.2 (091e20e, 2023-11-25, custom)"
   xmlns:inkscape="http://www.inkscape.org/namespaces/inkscape"
   xmlns:sodipodi="http://sodipodi.sourceforge.net/DTD/sodipodi-0.dtd"
   xmlns="http://www.w3.org/2000/svg"
   xmlns:svg="http://www.w3.org/2000/svg">
  <defs
     id="defs1" />
  <sodipodi:namedview
     id="namedview1"
     pagecolor="#ffffff"
     bordercolor="#000000"
     borderopacity="0.25"
     inkscape:showpageshadow="2"
     inkscape:pageopacity="0.0"
     inkscape:pagecheckerboard="0"
     inkscape:deskcolor="#d1d1d1"
     inkscape:zoom="0.2459375"
     inkscape:cx="512.32529"
     inkscape:cy="587.54765"
     inkscape:window-width="1920"
     inkscape:window-height="1001"
     inkscape:window-x="-9"
     inkscape:window-y="-9"
     inkscape:window-maximized="1"
     inkscape:current-layer="svg1" />
  <path
     fill="#000000"
     d="m 228.6,0 c -17.065,0 -32.536,1.784 -43.072,4.418 -3.267,0.817 -5.818,1.714 -7.95,2.582 2.132,0.868 4.683,1.765 7.95,2.582 C 196.064,12.216 211.535,14 228.6,14 245.665,14 261.136,12.216 271.672,9.582 274.939,8.765 277.49,7.868 279.622,7 277.49,6.132 274.939,5.235 271.672,4.418 261.136,1.784 245.665,0 228.6,0 Z m -72.203,11.64 c -4.585,1.973 -8.24,4.05 -10.682,5.973 -3.605,2.842 -4.115,4.617 -4.115,5.387 0,0.77 0.51,2.545 4.115,5.387 3.606,2.842 9.813,6.025 17.848,8.703 16.07,5.356 39.337,8.91 65.037,8.91 25.7,0 48.967,-3.554 65.037,-8.91 8.035,-2.678 14.242,-5.86 17.848,-8.703 3.605,-2.842 4.115,-4.617 4.115,-5.387 0,-0.77 -0.51,-2.545 -4.115,-5.387 -2.44,-1.923 -6.097,-4 -10.682,-5.974 -1.58,4.39 -5.256,7.33 -8.652,9.337 -4.474,2.645 -9.8,4.49 -16.112,6.068 C 263.41,30.202 246.88,32 228.6,32 c -18.28,0 -34.81,-1.798 -47.438,-4.955 -6.313,-1.578 -11.638,-3.423 -16.113,-6.068 -3.397,-2.008 -7.074,-4.948 -8.653,-9.338 z M 320.59,44.032 c -5.785,4.093 -12.926,7.354 -21.26,10.133 C 280.652,60.39 255.92,64 228.6,64 c -27.32,0 -52.053,-3.61 -70.73,-9.834 -8.33,-2.777 -15.467,-6.036 -21.25,-10.125 -24.608,16.21 -45.61,38.716 -61.21,65.64 3.276,5.266 5.99,11.497 8.356,18.59 4.585,13.756 7.744,30.802 9.094,49.742 L 112.87,158 h 19.072 c 16.006,-37.578 53.313,-64 96.658,-64 43.345,0 80.652,26.422 96.658,64 h 34.026 v 82 h -34.026 c -16.006,37.578 -53.313,64 -96.658,64 -43.345,0 -80.652,-26.422 -96.658,-64 h -19.07 L 92.86,219.988 c -1.35,18.94 -4.51,35.986 -9.094,49.74 -3.113,9.338 -6.826,17.19 -11.64,23.3 -3.33,4.225 -7.537,7.852 -12.483,9.69 6.29,17.048 14.535,32.926 24.414,47.282 H 123.6 v -32 h 50 v 32 h 110 v -32 h 50 v 32 h 39.543 c 9.88,-14.356 18.123,-30.234 24.414,-47.283 -4.946,-1.837 -9.152,-5.464 -12.482,-9.69 -4.815,-6.11 -8.528,-13.96 -11.64,-23.298 C 367.208,251.052 363.6,226.32 363.6,199 c 0,-27.32 3.61,-52.053 9.834,-70.73 2.362,-7.085 5.073,-13.31 8.346,-18.573 C 366.176,82.777 345.2,60.241 320.59,44.033 Z M 52.6,112 c -0.77,0 -2.545,0.51 -5.387,4.115 -1.923,2.44 -4,6.097 -5.974,10.682 4.39,1.58 7.33,5.256 9.337,8.652 2.645,4.474 4.49,9.8 6.068,16.113 3.158,12.628 4.956,29.158 4.956,47.438 0,18.28 -1.798,34.81 -4.955,47.438 -1.578,6.313 -3.423,11.638 -6.068,16.113 -2.008,3.397 -4.948,7.074 -9.338,8.653 1.973,4.585 4.05,8.24 5.973,10.682 2.843,3.604 4.618,4.114 5.388,4.114 0.77,0 2.545,-0.51 5.387,-4.115 2.842,-3.606 6.025,-9.813 8.703,-17.848 C 72.046,247.967 75.6,224.7 75.6,199 75.6,173.3 72.046,150.033 66.69,133.963 64.012,125.928 60.83,119.721 57.987,116.115 55.145,112.51 53.37,112 52.6,112 Z m 176,0 c -40.18,0 -73.872,27.046 -83.932,63.977 h -21.2 V 176 h -3.14 l -23,23 23,23 h 3.272 v -0.022 h 21.057 C 154.7,258.932 188.404,286 228.6,286 c 40.196,0 73.9,-27.068 83.943,-64.02 H 333.6 V 222 h 7.684 v -0.02 h 0.025 V 175.977 H 312.53 C 302.472,139.047 268.78,112 228.6,112 Z m 176,0 c -0.77,0 -2.545,0.51 -5.387,4.115 -2.842,3.606 -6.025,9.813 -8.703,17.848 -5.356,16.07 -8.91,39.337 -8.91,65.037 0,25.7 3.554,48.967 8.91,65.037 2.678,8.035 5.86,14.242 8.703,17.848 2.842,3.605 4.617,4.115 5.387,4.115 0.77,0 2.545,-0.51 5.387,-4.115 1.923,-2.44 4,-6.097 5.974,-10.682 -4.39,-1.58 -7.33,-5.256 -9.337,-8.652 -2.645,-4.474 -4.49,-9.8 -6.068,-16.112 C 397.398,233.81 395.6,217.28 395.6,199 c 0,-18.28 1.798,-34.81 4.955,-47.438 1.578,-6.313 3.423,-11.638 6.068,-16.113 2.008,-3.397 4.948,-7.074 9.338,-8.653 -1.973,-4.585 -4.05,-8.24 -5.973,-10.682 C 407.145,112.51 405.37,112 404.6,112 Z m -176,14 c 40.21,0 73,32.79 73,73 0,40.21 -32.79,73 -73,73 -40.21,0 -73,-32.79 -73,-73 0,-40.21 32.79,-73 73,-73 z m 0,18 c -2.643,0 -5.236,0.196 -7.777,0.553 l 7.777,7.777 7.777,-7.777 C 233.837,144.196 231.243,144 228.6,144 Z m -192,3.98 c -0.868,2.13 -1.765,4.68 -2.582,7.948 C 31.384,166.464 29.6,181.935 29.6,199 c 0,17.065 1.784,32.536 4.418,43.072 0.817,3.267 1.714,5.818 2.582,7.95 0.868,-2.132 1.765,-4.683 2.582,-7.95 C 41.816,231.536 43.6,216.065 43.6,199 c 0,-17.065 -1.784,-32.536 -4.418,-43.072 -0.817,-3.267 -1.714,-5.818 -2.582,-7.95 z m 384,0 c -0.868,2.13 -1.765,4.68 -2.582,7.948 -2.634,10.536 -4.418,26.007 -4.418,43.072 0,17.065 1.784,32.536 4.418,43.072 0.817,3.267 1.714,5.818 2.582,7.95 0.868,-2.132 1.765,-4.683 2.582,-7.95 2.634,-10.536 4.418,-26.007 4.418,-43.072 0,-17.065 -1.784,-32.536 -4.418,-43.072 -0.817,-3.267 -1.714,-5.818 -2.582,-7.95 z m -218.84,2.967 c -8.897,4.96 -16.252,12.316 -21.213,21.213 l 14.112,14.11 21.21,-21.21 -14.11,-14.113 z m 53.68,0 -14.11,14.112 21.21,21.21 14.113,-14.11 c -4.96,-8.897 -12.316,-16.252 -21.213,-21.213 z M 228.6,177.787 207.387,199 228.6,220.213 249.813,199 Z m -54.447,13.436 c -0.357,2.54 -0.553,5.134 -0.553,7.777 0,2.643 0.196,5.236 0.553,7.777 L 181.93,199 Z m 108.894,0 -7.777,7.777 7.777,7.777 c 0.357,-2.54 0.553,-5.134 0.553,-7.777 0,-2.643 -0.196,-5.236 -0.553,-7.777 z m -88.387,20.507 -14.113,14.11 c 4.96,8.897 12.316,16.252 21.213,21.213 l 14.11,-14.112 -21.21,-21.21 z m 67.88,0 -21.21,21.21 14.11,14.113 c 8.897,-4.96 16.252,-12.316 21.213,-21.213 l -14.112,-14.11 z m -33.94,33.94 -7.777,7.777 c 2.54,0.357 5.134,0.553 7.777,0.553 2.643,0 5.236,-0.196 7.777,-0.553 z m -87,90.33 v 14 h 14 v -14 z m 160,0 v 14 h 14 v -14 z m -208,32 v 30 h 270 V 368 Z M 0,416 c 2.473,5.036 6.916,10.005 14.315,15.078 11.75,8.058 29.705,15.387 51.603,21.227 C 109.716,463.985 169.2,470 228.6,470 c 59.4,0 118.884,-6.016 162.682,-17.695 21.898,-5.84 39.852,-13.17 51.603,-21.227 7.4,-5.073 11.842,-10.042 14.315,-15.078 z"
     id="path1"
     style="fill:#ffffff;fill-opacity:1" />
</svg>
