<?xml version="1.0" encoding="UTF-8" standalone="no"?>
<!-- Uploaded to: SVG Repo, www.svgrepo.com, Generator: SVG Repo Mixer Tools -->

<svg
   fill="#000000"
   height="508.76501"
   width="799.99799"
   version="1.1"
   id="Capa_1"
   viewBox="0 0 488.20577 310.4783"
   xml:space="preserve"
   sodipodi:docname="jeep.svg"
   inkscape:version="1.3.2 (091e20e, 2023-11-25, custom)"
   xmlns:inkscape="http://www.inkscape.org/namespaces/inkscape"
   xmlns:sodipodi="http://sodipodi.sourceforge.net/DTD/sodipodi-0.dtd"
   xmlns="http://www.w3.org/2000/svg"
   xmlns:svg="http://www.w3.org/2000/svg"><defs
   id="defs8" /><sodipodi:namedview
   id="namedview8"
   pagecolor="#ffffff"
   bordercolor="#000000"
   borderopacity="0.25"
   inkscape:showpageshadow="2"
   inkscape:pageopacity="0.0"
   inkscape:pagecheckerboard="0"
   inkscape:deskcolor="#d1d1d1"
   inkscape:zoom="0.98375"
   inkscape:cx="400"
   inkscape:cy="156.03558"
   inkscape:window-width="1920"
   inkscape:window-height="1001"
   inkscape:window-x="-9"
   inkscape:window-y="-9"
   inkscape:window-maximized="1"
   inkscape:current-layer="Capa_1" />
<g
   id="g8"
   transform="translate(0,-88.865)"
   style="fill:#5f4a8b;fill-opacity:1">
	<path
   d="m 370.082,290.328 c -30.056,0 -54.508,24.452 -54.508,54.508 0,30.055 24.452,54.507 54.508,54.507 30.056,0 54.508,-24.452 54.508,-54.507 0,-30.056 -24.452,-54.508 -54.508,-54.508 z m 0,95.014 c -22.336,0 -40.508,-18.171 -40.508,-40.507 0,-22.336 18.172,-40.508 40.508,-40.508 22.336,0 40.508,18.172 40.508,40.508 0,22.336 -18.172,40.507 -40.508,40.507 z"
   id="path1"
   style="fill:#5f4a8b;fill-opacity:1" />
	<path
   d="m 146.322,290.328 c -30.056,0 -54.508,24.452 -54.508,54.508 0,30.055 24.452,54.507 54.508,54.507 30.056,0 54.508,-24.452 54.508,-54.507 0,-30.056 -24.452,-54.508 -54.508,-54.508 z m 0,95.014 c -22.336,0 -40.508,-18.171 -40.508,-40.507 0,-22.336 18.172,-40.508 40.508,-40.508 22.336,0 40.508,18.172 40.508,40.508 0,22.336 -18.172,40.507 -40.508,40.507 z"
   id="path2"
   style="fill:#5f4a8b;fill-opacity:1" />
	<path
   d="m 481.207,289.685 h -14.575 l -4.687,-43.413 c -0.289,-2.68 -2.092,-4.956 -4.635,-5.851 l -76.063,-26.782 -67.9,-86.871 c -1.327,-1.698 -3.361,-2.69 -5.515,-2.69 h -40.473 v -10.459 h 36.362 c 3.866,0 7,-3.134 7,-7 0,-3.866 -3.134,-7 -7,-7 h -36.362 v -3.754 c 0,-3.866 -3.134,-7 -7,-7 -3.866,0 -7,3.134 -7,7 v 3.754 H 99.869 v -3.754 c 0,-3.866 -3.134,-7 -7,-7 -3.866,0 -7,3.134 -7,7 v 3.754 H 49.507 c -3.866,0 -7,3.134 -7,7 0,3.866 3.134,7 7,7 h 36.362 v 10.459 H 49.507 c -3.866,0 -7,3.134 -7,7 v 46.097 c -2.069,-0.701 -4.277,-1.098 -6.58,-1.098 H 20.58 C 9.232,176.077 0,185.309 0,196.657 v 76.488 c 0,11.348 9.232,20.58 20.58,20.58 h 15.347 c 2.303,0 4.511,-0.397 6.58,-1.098 v 21.302 h -3.062 c -3.866,0 -7,3.134 -7,7 0,3.866 3.134,7 7,7 h 3.062 v 16.906 c 0,3.866 3.134,7 7,7 h 25.997 c 3.866,0 7,-3.134 7,-7 0,-35.189 28.629,-63.818 63.818,-63.818 35.189,0 63.818,28.629 63.818,63.818 v 11.173 c 0,3.866 3.134,7 7,7 h 82.121 c 3.866,0 7,-3.134 7,-7 v -11.173 c 0,-35.189 28.63,-63.818 63.82,-63.818 35.19,0 63.818,28.629 63.818,63.818 0,3.866 3.134,7 7,7 h 40.307 c 3.866,0 7,-3.134 7,-7 v -48.15 c 10e-4,-3.866 -3.133,-7 -6.999,-7 z M 99.869,113.619 h 153.49 v 10.459 H 99.869 Z M 35.927,279.725 H 20.58 c -3.628,0 -6.58,-2.952 -6.58,-6.58 v -76.488 c 0,-3.628 2.952,-6.58 6.58,-6.58 h 15.347 c 3.628,0 6.58,2.952 6.58,6.58 v 76.488 c 0,3.628 -2.952,6.58 -6.58,6.58 z m 334.155,-12.708 c -42.91,0 -77.82,34.909 -77.82,77.818 v 4.173 h -52.194 l -10.014,-21.079 h 48.39 c 3.866,0 7,-3.134 7,-7 0,-3.866 -3.134,-7 -7,-7 h -60.72 c -11.982,-27.574 -39.47,-46.912 -71.401,-46.912 -40.549,0 -73.955,31.177 -77.506,70.818 H 56.507 V 138.079 h 247.912 l 67.058,85.795 c 0.823,1.053 1.93,1.848 3.191,2.292 l 73.832,25.996 4.051,37.526 h -27.63 c -14.079,-14 -33.463,-22.671 -54.839,-22.671 z m 104.125,70.818 h -26.619 c -1.116,-12.453 -5.181,-24.069 -11.485,-34.147 h 34.073 c 0.02,0 0.039,-0.003 0.058,-0.003 h 3.973 z"
   id="path3"
   style="fill:#5f4a8b;fill-opacity:1" />
	<path
   d="m 146.322,323.205 c -11.927,0 -21.63,9.704 -21.63,21.631 0,11.927 9.703,21.63 21.63,21.63 11.926,0 21.629,-9.703 21.629,-21.63 0.001,-11.928 -9.702,-21.631 -21.629,-21.631 z"
   id="path4"
   style="fill:#5f4a8b;fill-opacity:1" />
	<path
   d="m 370.082,323.205 c -11.927,0 -21.631,9.704 -21.631,21.631 0,11.927 9.704,21.63 21.631,21.63 11.927,0 21.63,-9.703 21.63,-21.63 0,-11.928 -9.703,-21.631 -21.63,-21.631 z"
   id="path5"
   style="fill:#5f4a8b;fill-opacity:1" />
	<path
   d="m 298.145,154.497 c -1.325,-1.726 -3.376,-2.737 -5.552,-2.737 H 187.306 c -3.866,0 -7,3.134 -7,7 v 63.821 c 0,3.866 3.134,7 7,7 h 154.285 c 2.665,0 5.1,-1.514 6.278,-3.905 1.179,-2.391 0.898,-5.244 -0.726,-7.358 z m -103.839,31.15 117.966,29.934 H 194.306 Z"
   id="path6"
   style="fill:#5f4a8b;fill-opacity:1" />
	<path
   d="M 157.811,151.759 H 77.408 c -1.862,0 -3.646,0.742 -4.96,2.061 -1.314,1.319 -2.048,3.107 -2.04,4.969 l 0.268,63.821 c 0.016,3.855 3.146,6.971 7,6.971 h 80.135 c 3.866,0 7,-3.134 7,-7 V 158.76 c 0,-3.867 -3.134,-7.001 -7,-7.001 z m -73.164,63.822 -0.195,-46.492 66.36,16.479 v 30.014 H 84.647 Z"
   id="path7"
   style="fill:#5f4a8b;fill-opacity:1" />
	<path
   d="m 205.573,243.025 h -17.688 c -3.866,0 -7,3.134 -7,7 0,3.866 3.134,7 7,7 h 17.688 c 3.866,0 7,-3.134 7,-7 0,-3.866 -3.134,-7 -7,-7 z"
   id="path8"
   style="fill:#5f4a8b;fill-opacity:1" />
</g>
</svg>
