<?xml version="1.0" encoding="UTF-8" standalone="no"?>
<!-- Uploaded to: SVG Repo, www.svgrepo.com, Generator: SVG Repo Mixer Tools -->

<svg
   width="52"
   height="26"
   viewBox="0 -16 4.16 2.08"
   version="1.1"
   id="svg7"
   sodipodi:docname="car-passenger.svg"
   inkscape:version="1.3.2 (091e20e, 2023-11-25, custom)"
   xmlns:inkscape="http://www.inkscape.org/namespaces/inkscape"
   xmlns:sodipodi="http://sodipodi.sourceforge.net/DTD/sodipodi-0.dtd"
   xmlns="http://www.w3.org/2000/svg"
   xmlns:svg="http://www.w3.org/2000/svg"
   xmlns:rdf="http://www.w3.org/1999/02/22-rdf-syntax-ns#"
   xmlns:cc="http://creativecommons.org/ns#"
   xmlns:dc="http://purl.org/dc/elements/1.1/"
   xmlns:sketch="http://www.bohemiancoding.com/sketch/ns">
  <sodipodi:namedview
     id="namedview7"
     pagecolor="#ffffff"
     bordercolor="#000000"
     borderopacity="0.25"
     inkscape:showpageshadow="2"
     inkscape:pageopacity="0.0"
     inkscape:pagecheckerboard="0"
     inkscape:deskcolor="#d1d1d1"
     inkscape:zoom="11.129861"
     inkscape:cx="12.53385"
     inkscape:cy="12.713546"
     inkscape:window-width="1920"
     inkscape:window-height="1001"
     inkscape:window-x="-9"
     inkscape:window-y="-9"
     inkscape:window-maximized="1"
     inkscape:current-layer="svg7" />
  <title
     id="title1">Car</title>
  <desc
     id="desc1">Created with Sketch.</desc>
  <defs
     id="defs1" />
  <g
     id="Page-1"
     stroke="none"
     stroke-width="1.0011"
     fill="none"
     fill-rule="evenodd"
     sketch:type="MSPage"
     style="stroke:#5f4a8b;stroke-opacity:1"
     transform="matrix(-0.06499774,0,0,0.06499588,4.1599272,-15.999928)">
    <g
       id="Car"
       sketch:type="MSLayerGroup"
       transform="translate(1,1)"
       stroke="#6B6C6E"
       stroke-width="2.00221"
       style="stroke:#5f4a8b;stroke-opacity:1">
      <path
         d="m 55,25 h 5 c 1.1,0 2,-0.9 2,-2 L 60,13 C 60,11.9 53,11 53,11 53,11 46.1,0 45,0 H 23 C 21,0 13,11 13,11 13,11 2.1,13.1 1,18 l -1,5 c 0,1.1 0.9,2 2,2 h 6"
         id="Shape"
         sketch:type="MSShapeGroup"
         style="stroke:#5f4a8b;stroke-width:2.00221;stroke-opacity:1" />
      <path
         d="M 20.1,25 H 42.9"
         id="path1"
         sketch:type="MSShapeGroup"
         style="stroke:#5f4a8b;stroke-width:2.00221;stroke-opacity:1" />
      <path
         d="m 28,14 h 3"
         id="path2"
         sketch:type="MSShapeGroup"
         style="stroke:#5f4a8b;stroke-width:2.00221;stroke-opacity:1" />
      <path
         d="m 46,14 h 3"
         id="path3"
         sketch:type="MSShapeGroup"
         style="stroke:#5f4a8b;stroke-width:2.00221;stroke-opacity:1" />
      <path
         d="M 1,21 H 8.2"
         id="path4"
         sketch:type="MSShapeGroup"
         style="stroke:#5f4a8b;stroke-width:2.00221;stroke-opacity:1" />
      <path
         d="m 54.6,21 h 6.8"
         id="path5"
         sketch:type="MSShapeGroup"
         style="stroke:#5f4a8b;stroke-width:2.00221;stroke-opacity:1" />
      <path
         d="m 31,10 c 0,0.6 -0.4,1 -1,1 H 19 c -0.6,0 -1,-0.4 -1,-1 0,0 5.4,-7 6,-7 h 6 c 0.6,0 1,0.4 1,1 z"
         id="path6"
         sketch:type="MSShapeGroup"
         style="stroke:#5f4a8b;stroke-width:2.00221;stroke-opacity:1" />
      <path
         d="m 35,10 c 0,0.6 0.4,1 1,1 h 11 c 0.6,0 1,-0.4 1,-1 0,0 -4.4,-7 -5,-7 h -7 c -0.6,0 -1,0.4 -1,1 z"
         id="path7"
         sketch:type="MSShapeGroup"
         style="stroke:#5f4a8b;stroke-width:2.00221;stroke-opacity:1" />
      <circle
         id="Oval"
         sketch:type="MSShapeGroup"
         cx="49"
         cy="24"
         r="6"
         style="stroke:#5f4a8b;stroke-width:2.00221;stroke-opacity:1" />
      <circle
         id="circle7"
         sketch:type="MSShapeGroup"
         cx="14"
         cy="24"
         r="6"
         style="stroke:#5f4a8b;stroke-width:2.00221;stroke-opacity:1" />
    </g>
  </g>
  <metadata
     id="metadata7">
    <rdf:RDF>
      <cc:Work
         rdf:about="">
        <dc:title>Car</dc:title>
      </cc:Work>
    </rdf:RDF>
  </metadata>
</svg>
