<?xml version="1.0" encoding="UTF-8" standalone="no"?>
<!-- Uploaded to: SVG Repo, www.svgrepo.com, Generator: SVG Repo Mixer Tools -->

<svg
   height="635.81403"
   width="800"
   version="1.1"
   id="_x32_"
   viewBox="0 0 512 406.92098"
   xml:space="preserve"
   sodipodi:docname="faucet.svg"
   inkscape:version="1.3.2 (091e20e, 2023-11-25, custom)"
   xmlns:inkscape="http://www.inkscape.org/namespaces/inkscape"
   xmlns:sodipodi="http://sodipodi.sourceforge.net/DTD/sodipodi-0.dtd"
   xmlns="http://www.w3.org/2000/svg"
   xmlns:svg="http://www.w3.org/2000/svg"><defs
   id="defs1" /><sodipodi:namedview
   id="namedview1"
   pagecolor="#ffffff"
   bordercolor="#000000"
   borderopacity="0.25"
   inkscape:showpageshadow="2"
   inkscape:pageopacity="0.0"
   inkscape:pagecheckerboard="0"
   inkscape:deskcolor="#d1d1d1"
   inkscape:zoom="0.6956163"
   inkscape:cx="186.88464"
   inkscape:cy="370.17534"
   inkscape:window-width="1920"
   inkscape:window-height="1001"
   inkscape:window-x="-9"
   inkscape:window-y="-9"
   inkscape:window-maximized="1"
   inkscape:current-layer="_x32_" />
<style
   type="text/css"
   id="style1">
	.st0{fill:#000000;}
</style>
<g
   id="g1"
   transform="matrix(-1,0,0,1,512,-52.54)"
   style="fill:#ffffff;fill-opacity:1">
	<path
   class="st0"
   d="m 373.263,248.677 c -18.028,0 -68.938,0 -118.995,0 v -38.763 h -47.472 v -58.617 c 14.562,-9.263 21.175,-23.171 33.864,-23.171 h 14.779 c 8.429,0 17.4,25.325 51.734,25.325 26.223,0 47.482,-21.259 47.482,-47.482 0,-26.251 -21.259,-47.492 -47.482,-47.492 -34.333,0 -43.305,25.306 -51.734,25.306 H 240.66 c -19.011,0 -24.293,-31.243 -63.29,-31.243 -38.997,0 -44.279,31.243 -63.29,31.243 H 99.32 c -8.448,0 -17.42,-25.306 -51.753,-25.306 -26.223,0 -47.482,21.241 -47.482,47.492 0,26.223 21.259,47.482 47.482,47.482 34.332,0 43.305,-25.325 51.753,-25.325 h 14.759 c 12.69,0 19.302,13.908 33.865,23.171 v 58.617 h -47.501 v 38.763 H 0 v 210.784 l 79.043,-0.009 c 0,0 162.15,-65.792 276.651,-100.996 41.974,-12.896 55.302,38.126 55.302,38.126 L 512,374.63 C 481.263,234.104 412.784,248.677 373.263,248.677 Z"
   id="path1"
   style="fill:#ffffff;fill-opacity:1" />
</g>
</svg>
