<?xml version="1.0" encoding="UTF-8" standalone="no"?>
<!-- Uploaded to: SVG Repo, www.svgrepo.com, Generator: SVG Repo Mixer Tools -->

<svg
   fill="#000000"
   height="637"
   width="800"
   version="1.1"
   id="Capa_1"
   viewBox="0 0 511 406.88375"
   xml:space="preserve"
   sodipodi:docname="minivan.svg"
   inkscape:version="1.3.2 (091e20e, 2023-11-25, custom)"
   xmlns:inkscape="http://www.inkscape.org/namespaces/inkscape"
   xmlns:sodipodi="http://sodipodi.sourceforge.net/DTD/sodipodi-0.dtd"
   xmlns="http://www.w3.org/2000/svg"
   xmlns:svg="http://www.w3.org/2000/svg"><defs
   id="defs5" /><sodipodi:namedview
   id="namedview5"
   pagecolor="#ffffff"
   bordercolor="#000000"
   borderopacity="0.25"
   inkscape:showpageshadow="2"
   inkscape:pageopacity="0.0"
   inkscape:pagecheckerboard="0"
   inkscape:deskcolor="#d1d1d1"
   inkscape:zoom="0.98375"
   inkscape:cx="400"
   inkscape:cy="400"
   inkscape:window-width="1920"
   inkscape:window-height="1001"
   inkscape:window-x="-9"
   inkscape:window-y="-9"
   inkscape:window-maximized="1"
   inkscape:current-layer="Capa_1" />
<g
   id="g5"
   transform="matrix(1,0,0,0.99971437,0,-51.985147)"
   style="fill:#5f4a8b;fill-opacity:1">
	<path
   d="m 119.5,388 c -4.142,0 -7.5,3.358 -7.5,7.5 0,9.098 -7.402,16.5 -16.5,16.5 -9.098,0 -16.5,-7.402 -16.5,-16.5 0,-9.098 7.402,-16.5 16.5,-16.5 4.142,0 7.5,-3.358 7.5,-7.5 0,-4.142 -3.358,-7.5 -7.5,-7.5 -17.369,0 -31.5,14.131 -31.5,31.5 0,17.369 14.131,31.5 31.5,31.5 17.369,0 31.5,-14.131 31.5,-31.5 0,-4.142 -3.358,-7.5 -7.5,-7.5 z"
   id="path1"
   style="fill:#5f4a8b;fill-opacity:1" />
	<path
   d="m 439.5,388 c -4.142,0 -7.5,3.358 -7.5,7.5 0,9.098 -7.402,16.5 -16.5,16.5 -9.098,0 -16.5,-7.402 -16.5,-16.5 0,-9.098 7.402,-16.5 16.5,-16.5 4.142,0 7.5,-3.358 7.5,-7.5 0,-4.142 -3.358,-7.5 -7.5,-7.5 -17.369,0 -31.5,14.131 -31.5,31.5 0,17.369 14.131,31.5 31.5,31.5 17.369,0 31.5,-14.131 31.5,-31.5 0,-4.142 -3.358,-7.5 -7.5,-7.5 z"
   id="path2"
   style="fill:#5f4a8b;fill-opacity:1" />
	<path
   d="m 511,259.5 c 0,-0.323 -0.027,-0.638 -0.067,-0.95 -0.01,-0.076 -0.023,-0.151 -0.035,-0.227 -0.042,-0.268 -0.098,-0.53 -0.167,-0.787 -0.013,-0.048 -0.023,-0.097 -0.037,-0.145 -0.091,-0.311 -0.201,-0.614 -0.33,-0.907 -0.016,-0.036 -0.034,-0.07 -0.051,-0.105 -0.119,-0.26 -0.253,-0.51 -0.4,-0.753 -0.02,-0.032 -0.033,-0.068 -0.053,-0.1 L 443.96,150.085 C 433.751,133.751 416.157,124 396.896,124 H 247 V 91.5 C 247,74.131 232.869,60 215.5,60 H 183 v -0.5 c 0,-4.142 -3.358,-7.5 -7.5,-7.5 -4.142,0 -7.5,3.358 -7.5,7.5 V 60 h -49 v -0.5 c 0,-4.142 -3.358,-7.5 -7.5,-7.5 -4.142,0 -7.5,3.358 -7.5,7.5 V 60 H 71.5 C 54.131,60 40,74.131 40,91.5 V 124 H 31.5 C 14.131,124 0,138.131 0,155.5 v 208 c 0,19.347 13.985,35.478 32.375,38.844 C 35.799,434.15 62.798,459 95.5,459 c 32.475,0 59.318,-24.51 63.042,-56 h 193.916 c 3.724,31.49 30.567,56 63.042,56 32.475,0 59.318,-24.51 63.042,-56 h 8.958 c 12.958,0 23.5,-10.542 23.5,-23.5 z M 496,316 h -8.5 c -4.687,0 -8.5,-3.813 -8.5,-8.5 0,-4.687 3.813,-8.5 8.5,-8.5 h 8.5 z m -6.032,-64 H 351 v -89 h 80.5 c 0.9,0 1.758,-0.167 2.558,-0.457 z M 199,252 v -89 h 137 v 89 z m -119.5,0 c -4.687,0 -8.5,-3.813 -8.5,-8.5 v -72 c 0,-4.687 3.813,-8.5 8.5,-8.5 H 184 v 89 z m 136,-177 c 9.098,0 16.5,7.402 16.5,16.5 V 124 H 183 V 75 Z M 168,75 v 49 H 119 V 75 Z M 55,91.5 C 55,82.402 62.402,75 71.5,75 H 104 v 49 H 55 Z M 95.5,444 C 68.757,444 47,422.243 47,395.5 47,368.757 68.757,347 95.5,347 c 26.743,0 48.5,21.757 48.5,48.5 0,26.743 -21.757,48.5 -48.5,48.5 z m 320,0 c -26.743,0 -48.5,-21.757 -48.5,-48.5 0,-26.743 21.757,-48.5 48.5,-48.5 26.743,0 48.5,21.757 48.5,48.5 0,26.743 -21.757,48.5 -48.5,48.5 z m 72,-56 h -8.958 c -3.724,-31.49 -30.567,-56 -63.042,-56 -32.475,0 -59.318,24.51 -63.042,56 H 158.542 C 154.818,356.51 127.975,332 95.5,332 63.369,332 36.754,355.993 32.585,387 22.434,384.008 15,374.608 15,363.5 V 299 h 376.497 c 4.142,0 7.5,-3.358 7.5,-7.5 0,-4.142 -3.358,-7.5 -7.5,-7.5 H 15 V 155.5 C 15,146.402 22.402,139 31.5,139 h 365.396 c 9.473,0 18.386,3.243 25.476,9 H 79.5 C 66.542,148 56,158.542 56,171.5 v 72 C 56,256.458 66.542,267 79.5,267 H 496 v 17 h -8.5 c -12.958,0 -23.5,10.542 -23.5,23.5 0,12.958 10.542,23.5 23.5,23.5 h 8.5 v 48.5 c 0,4.687 -3.813,8.5 -8.5,8.5 z"
   id="path3"
   style="fill:#5f4a8b;fill-opacity:1" />
	<path
   d="m 327.5,356 h -144 c -4.142,0 -7.5,3.358 -7.5,7.5 0,4.142 3.358,7.5 7.5,7.5 h 144 c 4.142,0 7.5,-3.358 7.5,-7.5 0,-4.142 -3.358,-7.5 -7.5,-7.5 z"
   id="path4"
   style="fill:#5f4a8b;fill-opacity:1" />
	<path
   d="m 439.503,284 h -16 c -4.142,0 -7.5,3.358 -7.5,7.5 0,4.142 3.358,7.5 7.5,7.5 h 16 c 4.142,0 7.5,-3.358 7.5,-7.5 0,-4.142 -3.357,-7.5 -7.5,-7.5 z"
   id="path5"
   style="fill:#5f4a8b;fill-opacity:1" />
</g>
</svg>
