<?xml version="1.0" encoding="UTF-8" standalone="no"?>
<!-- Uploaded to: SVG Repo, www.svgrepo.com, Generator: SVG Repo Mixer Tools -->

<svg
   fill="#000000"
   width="753"
   height="753"
   viewBox="0 0 30.12 30.12"
   version="1.1"
   id="svg1"
   sodipodi:docname="telegram.svg"
   inkscape:version="1.3.2 (091e20e, 2023-11-25, custom)"
   xmlns:inkscape="http://www.inkscape.org/namespaces/inkscape"
   xmlns:sodipodi="http://sodipodi.sourceforge.net/DTD/sodipodi-0.dtd"
   xmlns="http://www.w3.org/2000/svg"
   xmlns:svg="http://www.w3.org/2000/svg"
   xmlns:rdf="http://www.w3.org/1999/02/22-rdf-syntax-ns#"
   xmlns:cc="http://creativecommons.org/ns#"
   xmlns:dc="http://purl.org/dc/elements/1.1/">
  <defs
     id="defs1" />
  <sodipodi:namedview
     id="namedview1"
     pagecolor="#ffffff"
     bordercolor="#000000"
     borderopacity="0.25"
     inkscape:showpageshadow="2"
     inkscape:pageopacity="0.0"
     inkscape:pagecheckerboard="0"
     inkscape:deskcolor="#d1d1d1"
     inkscape:zoom="0.491875"
     inkscape:cx="506.22618"
     inkscape:cy="417.78907"
     inkscape:window-width="1920"
     inkscape:window-height="1001"
     inkscape:window-x="-9"
     inkscape:window-y="-9"
     inkscape:window-maximized="1"
     inkscape:current-layer="svg1" />
  <title
     id="title1">telegram</title>
  <path
     d="m 21.217,9.015 c 0.006,0 0.014,0 0.022,0 0.209,0 0.403,0.065 0.562,0.177 L 21.798,9.19 c 0.116,0.101 0.194,0.243 0.213,0.403 v 0.003 c 0.02,0.122 0.031,0.262 0.031,0.405 0,0.065 -0.002,0.129 -0.007,0.193 v -0.009 c -0.225,2.369 -1.201,8.114 -1.697,10.766 -0.21,1.123 -0.623,1.499 -1.023,1.535 -0.869,0.081 -1.529,-0.574 -2.371,-1.126 -1.318,-0.865 -2.063,-1.403 -3.342,-2.246 -1.479,-0.973 -0.52,-1.51 0.322,-2.384 0.221,-0.23 4.052,-3.715 4.127,-4.031 0.004,-0.019 0.006,-0.04 0.006,-0.062 0,-0.078 -0.029,-0.149 -0.076,-0.203 v 0 c -0.052,-0.034 -0.117,-0.053 -0.185,-0.053 -0.045,0 -0.088,0.009 -0.128,0.024 l 0.002,-10e-4 q -0.198,0.045 -6.316,4.174 c -0.445,0.351 -1.007,0.573 -1.619,0.599 H 9.729 C 8.862,17.072 8.075,16.879 7.328,16.604 l 0.074,0.024 C 6.464,16.322 5.719,16.161 5.783,15.643 q 0.051,-0.404 1.114,-0.827 6.548,-2.853 8.733,-3.761 C 17.237,10.202 19.1,9.5 21.059,9.045 L 21.216,9.014 Z M 15.025,0 C 6.723,0.02 0,6.755 0,15.06 c 0,8.317 6.742,15.06 15.06,15.06 8.318,0 15.06,-6.742 15.06,-15.06 C 30.12,6.755 23.397,0.02 15.097,0 h -0.002 q -0.035,0 -0.07,0 z"
     id="path1"
     style="fill:#5f4a8b;fill-opacity:1" />
  <metadata
     id="metadata1">
    <rdf:RDF>
      <cc:Work
         rdf:about="">
        <dc:title>telegram</dc:title>
      </cc:Work>
    </rdf:RDF>
  </metadata>
</svg>
