<?xml version="1.0" encoding="UTF-8" standalone="no"?>
<svg
   width="95"
   height="82.5"
   viewBox="0 0 95 82.5"
   fill="none"
   version="1.1"
   id="svg15"
   sodipodi:docname="logo.svg"
   inkscape:version="1.3.2 (091e20e, 2023-11-25, custom)"
   xmlns:inkscape="http://www.inkscape.org/namespaces/inkscape"
   xmlns:sodipodi="http://sodipodi.sourceforge.net/DTD/sodipodi-0.dtd"
   xmlns="http://www.w3.org/2000/svg"
   xmlns:svg="http://www.w3.org/2000/svg">
  <sodipodi:namedview
     id="namedview15"
     pagecolor="#ffffff"
     bordercolor="#000000"
     borderopacity="0.25"
     inkscape:showpageshadow="2"
     inkscape:pageopacity="0.0"
     inkscape:pagecheckerboard="0"
     inkscape:deskcolor="#d1d1d1"
     inkscape:zoom="6.7047354"
     inkscape:cx="54.140839"
     inkscape:cy="42.730993"
     inkscape:window-width="1920"
     inkscape:window-height="1001"
     inkscape:window-x="-9"
     inkscape:window-y="-9"
     inkscape:window-maximized="1"
     inkscape:current-layer="svg15" />
  <g
     clip-path="url(#clip0_6_9)"
     id="g9"
     transform="matrix(1,0,0,1.0000266,-1.5000013,0)">
    <mask
       id="mask0_6_9"
       maskUnits="userSpaceOnUse"
       x="-3"
       y="-10"
       width="104"
       height="103">
      <path
         d="M 100.063,-9.81336 H -2.06241 V 92.3119 H 100.063 Z"
         fill="#ffffff"
         id="path1" />
    </mask>
    <g
       mask="url(#mask0_6_9)"
       id="g2">
      <path
         d="M 83.0097,25.2628 C 73.1084,24.9032 72.4142,17.9819 72.4073,13.1813 72.3983,8.3792 68.7501,4.49664 64.2382,4.49664 c -2.1412,0 -4.088,0.87714 -5.545,2.30979 C 51.0786,12.924 46.2177,7.16397 44.82,5.09403 44.7188,4.92549 44.6135,4.76093 44.5043,4.59837 44.436,4.48417 44.4011,4.41885 44.4011,4.41885 l -0.004,0.01944 C 42.4394,1.64531 39.2664,-0.127919 35.709,0.00721696 30.3579,0.209174 26.044,4.80082 25.7428,10.485 c -0.0753,1.4277 -0.0693,2.3467 1.0522,5.3985 1.12,3.0513 -1.2372,5.2643 -4.3608,3.2508 C 19.897,17.4982 16.948,16.0949 13.7351,16.1498 6.93339,16.2675 1.43917,22.2673 1.50051,29.4979 c 0.03241,3.7868 1.5613,7.1926 3.98777,9.5832 1.56878,1.5444 1.9323,4.0631 0.86817,6.0348 -0.95593,1.7732 -1.48401,3.8526 -1.48401,5.7475 0,6.0817 4.63653,11.0114 10.35666,11.0114 7.3427,0 13.0923,1.3474 13.1272,12.8424 0.0134,4.2646 3.3121,7.8409 7.3233,7.7801 3.2791,-0.0479 6.0283,-2.4225 6.8585,-5.6388 l 0.0015,0.002 c 1.3958,-4.2745 6.7,-8.6577 17.7054,-1.1619 0.1047,0.0748 0.2114,0.1486 0.3202,0.2185 0.001,10e-4 0.001,10e-4 0.002,0.002 1.122,0.7221 2.4335,1.1419 3.8377,1.1519 3.9713,0.0299 7.3173,-3.2921 7.5507,-7.5068 0.0329,-0.5844 0.005,-1.1559 -0.0758,-1.7084 -0.6483,-9.1404 11.0403,-5.6508 11.5818,-5.4563 10e-4,10e-4 10e-4,0 0.003,10e-4 0.5156,0.1984 1.0811,0.2862 1.6725,0.2353 1.9198,-0.1685 3.4637,-1.833 3.5963,-3.8775 0.1207,-1.862 -0.9066,-3.4886 -2.4045,-4.1568 l 10e-4,-0.001 c -8.3875,-3.7998 2.3985,-15.3976 2.3985,-15.3976 l -0.002,10e-4 c 1.2945,-1.481 2.0864,-3.4642 2.0864,-5.6443 0,-4.5827 -3.4937,-8.2968 -7.8031,-8.2968 z M 8.3815,52.9388 c -0.30917,0 -0.56049,-0.2663 -0.56249,-0.5944 v -0.0419 c 0,-0.3301 0.25182,-0.5974 0.56249,-0.5974 0.31066,0 0.56149,0.2673 0.56149,0.5974 v 0.0349 c 0.00245,0.3292 -0.24784,0.5994 -0.5585,0.6014 z m 5.7426,5.591 c -0.0449,0.0688 -0.1043,0.1227 -0.1686,0.1596 0,0 -0.0274,0.0149 -0.0798,0.0389 -0.0528,0.0249 -0.1296,0.0518 -0.2309,0.0887 -0.0498,0.016 -0.1062,0.0349 -0.167,0.0499 -0.0614,0.013 -0.1277,0.0239 -0.1995,0.0349 -0.1426,0.0179 -0.3072,0.0409 -0.4842,0.0269 -0.0887,-0.002 -0.1795,-0.012 -0.2752,-0.0179 -0.0943,-0.016 -0.192,-0.033 -0.2913,-0.0559 C 12.0252,58.818 11.8252,58.7352 11.6168,58.6554 11.5136,58.6116 11.4113,58.5597 11.3076,58.5108 11.2553,58.4859 11.2034,58.461 11.151,58.434 11.1012,58.4041 11.0503,58.3732 10.999,58.3443 10.8987,58.2815 10.7935,58.2266 10.6958,58.1568 10.5985,58.087 10.5018,58.0162 10.4036,57.9454 10.3078,57.8745 10.2176,57.7928 10.1268,57.714 10.035,57.6372 9.94928,57.5544 9.8665,57.4686 9.69695,57.3021 9.54586,57.1226 9.40474,56.9451 9.33443,56.8563 9.2731,56.7625 9.21076,56.6728 9.14943,56.582 9.08809,56.4953 9.03823,56.4035 8.93401,56.223 8.83826,56.0535 8.76746,55.8849 8.72956,55.8021 8.69415,55.7243 8.66224,55.6465 8.63181,55.5648 8.6029,55.489 8.57947,55.4162 8.55503,55.3434 8.53259,55.2765 8.51115,55.2137 8.4927,55.1529 8.48273,55.105 8.47126,55.0551 8.42838,54.8666 8.40794,54.7559 8.40794,54.7559 8.36007,54.4996 8.51614,54.2523 8.7575,54.2004 c 0.17054,-0.0359 0.33809,0.0369 0.43782,0.1726 0,0 0.06433,0.0897 0.17154,0.2473 0.02792,0.0379 0.05535,0.0878 0.08676,0.1287 0.03092,0.0379 0.06483,0.0797 0.10123,0.1246 0.03591,0.0439 0.0718,0.0908 0.1092,0.1396 0.0419,0.0509 0.08677,0.1038 0.13414,0.1586 0.08876,0.1127 0.19498,0.2234 0.30621,0.3411 0.0523,0.0618 0.1132,0.1177 0.1745,0.1745 0.0623,0.0579 0.1177,0.1217 0.185,0.1766 0.0663,0.0568 0.1326,0.1127 0.198,0.1715 0.0643,0.0608 0.1401,0.1087 0.2094,0.1645 0.0683,0.0569 0.1401,0.1117 0.2154,0.1586 0.0758,0.0489 0.1461,0.1047 0.2229,0.1516 0.1531,0.0918 0.3032,0.1855 0.4603,0.2623 l 0.1147,0.0608 0.1172,0.0519 c 0.0778,0.0349 0.1521,0.0728 0.2288,0.1037 0.1551,0.0519 0.3002,0.1207 0.4434,0.1696 0.1416,0.0578 0.2767,0.1137 0.4004,0.1645 0.1276,0.0569 0.2448,0.1097 0.348,0.1556 0.0534,0.0269 0.1033,0.0519 0.1491,0.0778 0.0469,0.0199 0.0908,0.0419 0.1297,0.0618 0.0798,0.0449 0.1431,0.0758 0.187,0.1067 0.0439,0.027 0.0673,0.0439 0.0673,0.0439 l 0.0499,0.0379 c 0.2209,0.1646 0.2737,0.4897 0.1187,0.7231 z M 36.0276,2.93584 c 0.0534,-0.24085 0.2793,-0.39095 0.5057,-0.3361 l 0.0389,0.01047 c 0.2268,0.05935 0.3645,0.30119 0.3096,0.54105 -0.0473,0.20544 -0.2189,0.34208 -0.4089,0.34208 -0.0334,0 -0.0673,-0.00399 -0.0997,-0.01197 L 36.3433,3.47442 C 36.1169,3.41807 35.9758,3.17719 36.0276,2.93584 Z M 33.9487,79.7687 c -0.004,0.002 -0.0105,0.005 -0.0145,0.0069 0,0 -0.0408,0.017 -0.0917,0.018 -0.0514,0.002 -0.1137,-0.014 -0.1695,-0.0439 -0.0574,-0.0289 -0.1102,-0.0668 -0.1472,-0.1047 -0.0368,-0.0359 -0.0573,-0.0708 -0.0573,-0.0708 -0.1042,-0.1775 -0.0529,-0.4109 0.1137,-0.5216 0.0324,-0.021 0.0693,-0.0359 0.1037,-0.0469 0,0 0.0379,-0.009 0.0893,-0.008 0.0498,0.001 0.1132,0.013 0.1725,0.0349 0.0614,0.02 0.1152,0.0549 0.1511,0.0948 0.0354,0.0379 0.0539,0.0808 0.0539,0.0808 0.0892,0.2144 -0.0021,0.4657 -0.204,0.5605 z M 34.8573,3.37915 C 34.8104,3.39162 34.7536,3.3996 34.6992,3.41605 34.6503,3.4325 34.596,3.45046 34.5386,3.4709 34.4818,3.49035 34.4224,3.5088 34.3591,3.52725 34.2948,3.54969 34.2255,3.57911 34.1547,3.60604 34.0834,3.63547 34.0091,3.6609 33.9343,3.69381 33.86,3.72822 33.7842,3.76511 33.7044,3.80202 33.6261,3.83343 33.5473,3.87732 33.4685,3.92269 33.3897,3.96857 33.3074,4.00647 33.2277,4.05634 33.0701,4.16155 32.904,4.2563 32.7504,4.38096 32.5884,4.48817 32.4453,4.63029 32.2932,4.75595 32.1521,4.89658 32.0069,5.03071 31.8808,5.18181 l -0.0973,0.10821 c -0.0319,0.0369 -0.0593,0.0763 -0.0897,0.11419 -0.0584,0.0768 -0.1187,0.1491 -0.1735,0.2249 C 31.421,5.78818 31.3088,5.9293 31.2211,6.0784 31.1747,6.1517 31.1238,6.21852 31.0779,6.28684 31.0341,6.35615 30.9952,6.42446 30.9503,6.48779 30.8605,6.61445 30.7857,6.73613 30.7134,6.84533 30.6755,6.89819 30.6406,6.94955 30.6052,6.99643 30.5753,7.04429 30.5449,7.08818 30.5184,7.12907 30.4601,7.20886 30.4152,7.27418 30.3783,7.31706 30.3444,7.36095 30.323,7.38338 30.323,7.38338 l -0.0384,0.0419 C 30.117,7.60629 29.8433,7.60729 29.6737,7.42926 29.6084,7.36095 29.5675,7.27517 29.552,7.18541 c 0,0 -0.006,-0.0349 -0.0109,-0.09823 -0.0075,-0.06433 -0.0095,-0.15608 -0.0135,-0.27675 0,-0.05885 -0.001,-0.12567 0.0021,-0.19697 0.006,-0.07131 0.0174,-0.14711 0.0284,-0.22889 0.0249,-0.16206 0.0533,-0.34806 0.1197,-0.53905 0.0284,-0.09723 0.0653,-0.19497 0.1002,-0.29919 0.0449,-0.09924 0.0907,-0.20146 0.1426,-0.30419 0.0952,-0.21143 0.2384,-0.4079 0.377,-0.61484 0.0748,-0.10023 0.1561,-0.19747 0.2359,-0.29621 0.0398,-0.05036 0.0797,-0.10122 0.1226,-0.1481 L 30.7908,4.04287 C 30.883,3.95211 30.9688,3.85188 31.0685,3.76811 31.1677,3.68434 31.267,3.59956 31.3657,3.51479 31.4679,3.43451 31.5761,3.3617 31.6814,3.2874 31.7846,3.2106 31.8958,3.14628 32.005,3.08295 32.2229,2.9523 32.4483,2.85108 32.6672,2.75633 c 0.1102,-0.04487 0.2214,-0.07979 0.3296,-0.11668 0.1072,-0.0364 0.2135,-0.07131 0.3197,-0.09276 0.1052,-0.02343 0.2074,-0.04687 0.3051,-0.06931 0.0993,-0.02044 0.1975,-0.02693 0.2903,-0.0389 0.0927,-0.01046 0.1795,-0.02243 0.2653,-0.02743 0.0892,-0.00449 0.173,-0.00745 0.2503,-0.00643 0.0778,0 0.1511,0 0.2174,0 0.0648,0.00296 0.1157,0.01047 0.1656,0.01546 0.1974,0.02444 0.3106,0.04188 0.3106,0.04188 0.2204,0.03391 0.3735,0.25232 0.3421,0.48719 -0.0244,0.17653 -0.1471,0.31366 -0.3012,0.35455 0,0 -0.1102,0.02938 -0.3047,0.07525 z M 38.8087,79.282 c 0,0 -0.1072,0.2633 -0.389,0.4807 -0.0683,0.0569 -0.1481,0.1097 -0.2348,0.1566 -0.0868,0.0499 -0.184,0.0868 -0.2853,0.1247 -0.1007,0.0329 -0.2049,0.0728 -0.3141,0.0997 -0.1082,0.0319 -0.2199,0.0548 -0.3321,0.0778 -0.2234,0.0409 -0.4493,0.0638 -0.6617,0.0658 -0.2125,0.001 -0.4094,-0.012 -0.576,-0.0429 -0.0828,-0.013 -0.1606,-0.0249 -0.2299,-0.0429 -0.0703,-0.0169 -0.1286,-0.0309 -0.1715,-0.0458 -0.0888,-0.03 -0.1401,-0.0499 -0.1401,-0.0499 -0.1561,-0.0608 -0.2369,-0.2463 -0.1786,-0.4129 0.035,-0.1017 0.1152,-0.1745 0.2075,-0.1995 0,0 0.0528,-0.0149 0.1441,-0.0349 0.0479,-0.0089 0.0987,-0.0219 0.1551,-0.0369 0.0583,-0.0129 0.1227,-0.0289 0.193,-0.0458 0.0713,-0.017 0.1481,-0.0369 0.2298,-0.0559 0.0808,-0.0189 0.1641,-0.0439 0.2514,-0.0648 0.0857,-0.026 0.1745,-0.0469 0.2643,-0.0758 0.0897,-0.022 0.1785,-0.0549 0.2687,-0.0808 0.1786,-0.0578 0.3551,-0.1197 0.5196,-0.1805 0.1626,-0.0678 0.3187,-0.1147 0.4618,-0.1436 0.0713,-0.013 0.1396,-0.022 0.201,-0.0289 0.0623,-0.005 0.1216,-0.004 0.1675,-0.007 0.0972,0.002 0.1606,0.013 0.1606,0.013 l 0.0194,0.0029 c 0.195,0.0339 0.3266,0.2304 0.2947,0.4379 -0.005,0.0299 -0.0139,0.0618 -0.0254,0.0897 z m 29.1306,-6.0098 c 0,0 -0.0419,0.0897 -0.1316,0.2324 -0.0449,0.0728 -0.1057,0.1545 -0.1815,0.2403 -0.0748,0.0878 -0.1636,0.1845 -0.2703,0.2733 -0.0519,0.0468 -0.1087,0.0917 -0.1676,0.1396 -0.0608,0.0419 -0.1246,0.0878 -0.1914,0.1297 -0.0669,0.0448 -0.1367,0.0867 -0.2105,0.1226 -0.0738,0.0389 -0.1506,0.0768 -0.2284,0.1137 -0.1595,0.0638 -0.3211,0.1396 -0.4936,0.1905 -0.1696,0.0618 -0.3481,0.1027 -0.5246,0.1456 -0.1785,0.0339 -0.3561,0.0668 -0.5336,0.0828 -0.1775,0.0199 -0.353,0.0229 -0.5216,0.0249 -0.1685,-0.006 -0.3311,-0.011 -0.4847,-0.0319 -0.1536,-0.019 -0.2972,-0.0369 -0.4278,-0.0708 -0.1297,-0.0269 -0.2513,-0.0569 -0.3591,-0.0928 -0.0538,-0.0169 -0.1037,-0.0319 -0.1496,-0.0458 -0.0438,-0.016 -0.0797,-0.0309 -0.1146,-0.0449 -0.1367,-0.0578 -0.2135,-0.0918 -0.2135,-0.0918 -0.1496,-0.0688 -0.2184,-0.2523 -0.1546,-0.4109 0.0479,-0.1206 0.1586,-0.1924 0.2753,-0.1904 0,0 0.0838,0.002 0.2314,0.01 0.0349,0.001 0.0768,0.0069 0.1187,0.0069 0.0399,0 0.0837,-0.001 0.1296,-0.002 0.0469,-0.001 0.0958,10e-4 0.1456,0.002 0.0529,-0.002 0.1077,-0.004 0.1666,-0.006 0.1157,-0.003 0.2393,-0.011 0.371,-0.0219 0.1306,-0.007 0.2673,-0.033 0.4079,-0.0479 0.1396,-0.0269 0.2852,-0.0439 0.4288,-0.0818 0.1466,-0.0259 0.2902,-0.0738 0.4349,-0.1087 0.1426,-0.0489 0.2862,-0.0908 0.4228,-0.1456 0.1406,-0.0489 0.2713,-0.1127 0.4009,-0.1656 0.1247,-0.0668 0.2514,-0.1176 0.3651,-0.1785 0.1186,-0.0538 0.2313,-0.1057 0.3341,-0.1546 0.1067,-0.0468 0.2044,-0.0887 0.2912,-0.1266 0.0907,-0.0339 0.1715,-0.0649 0.2373,-0.0918 0.1347,-0.0498 0.2224,-0.0698 0.2224,-0.0698 l 0.025,-0.0069 c 0.1695,-0.0389 0.3371,0.0738 0.374,0.2533 0.0169,0.0768 0.006,0.1536 -0.024,0.2194 z M 87.1815,31.0347 C 87.1685,31.0173 87.1546,30.9949 87.1396,30.9764 87.1257,30.959 87.1097,30.9405 87.0928,30.9216 87.0598,30.8817 87.0229,30.8358 86.983,30.7864 86.9432,30.7366 86.8993,30.6822 86.8524,30.6283 86.8085,30.571 86.7557,30.5171 86.7078,30.4568 86.6539,30.4015 86.6051,30.3401 86.5492,30.2843 86.4984,30.2239 86.4375,30.1716 86.3847,30.1127 86.3268,30.0584 86.273,30.001 86.2141,29.9502 86.1583,29.8993 86.1004,29.8479 86.0466,29.7991 85.9887,29.7552 85.9389,29.7058 85.89,29.659 85.8421,29.6101 85.7992,29.5592 85.7603,29.5089 85.7224,29.458 85.6895,29.4046 85.6586,29.3568 85.6287,29.3079 85.6068,29.2555 85.5848,29.2181 85.5659,29.1738 85.5499,29.1403 85.5399,29.1129 85.5299,29.086 85.526,29.07 85.526,29.07 l -0.015,-0.0533 c -0.0678,-0.2419 0.0598,-0.4962 0.2842,-0.574 0,0 0.016,-0.006 0.0449,-0.0109 0.0299,-0.0085 0.0698,-0.0125 0.1237,-0.0185 0.1037,-0.0075 0.2503,0 0.4069,0.0559 0.0798,0.0259 0.1606,0.0653 0.2423,0.1136 0.0828,0.0469 0.1596,0.1132 0.2384,0.1816 0.0758,0.0718 0.1566,0.1431 0.2284,0.2268 0.0768,0.0798 0.1456,0.1686 0.2144,0.2574 0.1326,0.1815 0.2463,0.3769 0.3341,0.5689 0.0419,0.0968 0.0818,0.191 0.1127,0.2838 0.0299,0.0917 0.0559,0.1785 0.0738,0.2623 0.02,0.0797 0.0349,0.1595 0.0449,0.2318 0.01,0.0728 0.0169,0.1317 0.0169,0.1746 0.0021,0.0902 0.001,0.1431 0.001,0.1431 -0.0069,0.2044 -0.1675,0.3655 -0.36,0.3585 -0.1007,-0.0029 -0.1905,-0.0518 -0.2513,-0.1266 0,0 -0.0329,-0.0399 -0.0848,-0.1103 z m 1.1619,1.4307 c -0.019,0.2329 -0.2035,0.4084 -0.4199,0.4084 -0.012,0 -0.0239,-0.001 -0.0379,-0.002 -0.2314,-0.0215 -0.4029,-0.2399 -0.382,-0.4862 l 0.4199,0.0399 -0.4199,-0.0489 c 0,-0.001 10e-4,-0.0155 0.003,-0.0165 0.0199,-0.2458 0.2254,-0.4298 0.4568,-0.4054 0.2323,0.0225 0.4029,0.2399 0.3819,0.4872 l -0.4208,-0.0274 z"
         fill="#5f4a8b"
         id="path2" />
    </g>
    <mask
       id="mask1_6_9"
       maskUnits="userSpaceOnUse"
       x="-3"
       y="-10"
       width="104"
       height="103">
      <path
         d="M 100.063,-9.81336 H -2.06241 V 92.3119 H 100.063 Z"
         fill="#ffffff"
         id="path3" />
    </mask>
    <g
       mask="url(#mask1_6_9)"
       id="g4">
      <path
         d="m 18.2629,11.0844 c 1.1429,0 2.0689,-0.9843 2.0689,-2.19956 0,-1.21424 -0.926,-2.19909 -2.0689,-2.19909 -1.1429,0 -2.0689,0.98485 -2.0689,2.19909 0,1.21526 0.926,2.19956 2.0689,2.19956 z M 17.1444,7.72845 c 0.0903,-0.12217 0.2483,-0.24783 0.4239,-0.3356 0.0449,-0.02145 0.0897,-0.04089 0.1351,-0.05734 0.0439,-0.01945 0.0898,-0.02993 0.1336,-0.04289 0.0878,-0.02144 0.1716,-0.0339 0.2429,-0.03689 0.0359,-0.00296 0.0708,-0.00205 0.1012,-10e-4 0.0319,-0.001 0.0564,10e-4 0.0738,0.00296 0.0364,0.00501 0.0579,0.00848 0.0579,0.00848 0.0847,0.01097 0.1451,0.09275 0.1341,0.18251 -0.0085,0.0728 -0.0603,0.12765 -0.1247,0.14112 0,0 -0.0214,0.00398 -0.0583,0.01097 -0.0194,0.00204 -0.0409,0.00745 -0.0603,0.01247 -0.0215,0.005 -0.0439,0.01 -0.0723,0.01944 C 18.0221,7.6621 17.8819,7.71446 17.7533,7.78876 17.6236,7.86157 17.5089,7.95631 17.4182,8.02562 17.3723,8.06153 17.3334,8.09094 17.307,8.11239 17.2795,8.13283 17.2611,8.1443 17.2611,8.1443 L 17.2496,8.15125 C 17.1723,8.19712 17.0751,8.1687 17.0312,8.08593 17.0078,8.04204 17.0048,7.99218 17.0188,7.9473 c 0,0 0.0329,-0.09918 0.1256,-0.21885 z"
         fill="#5f4a8b"
         id="path4" />
    </g>
    <mask
       id="mask2_6_9"
       maskUnits="userSpaceOnUse"
       x="-3"
       y="-10"
       width="104"
       height="103">
      <path
         d="M 100.063,-9.81336 H -2.06241 V 92.3119 H 100.063 Z"
         fill="#ffffff"
         id="path5" />
    </mask>
    <g
       mask="url(#mask2_6_9)"
       id="g6">
      <path
         d="m 79.9061,67.3471 c -2.7476,0 -4.9756,2.0006 -4.9756,4.469 0,2.4673 2.228,4.4679 4.9756,4.4679 2.7486,0 4.9766,-2.0006 4.9766,-4.4679 0,-2.4684 -2.228,-4.469 -4.9766,-4.469 z m -0.4907,1.9348 c 0,0 -0.0688,0.0139 -0.1885,0.0399 -0.0299,0.005 -0.0618,0.0109 -0.0987,0.0169 -0.0289,0.01 -0.0608,0.021 -0.0938,0.0329 -0.0668,0.02 -0.1406,0.0389 -0.2274,0.0788 -0.0418,0.017 -0.0857,0.0329 -0.1306,0.0509 -0.0439,0.0209 -0.0888,0.0449 -0.1346,0.0678 -0.0469,0.0219 -0.0938,0.0459 -0.1387,0.0768 -0.0458,0.0279 -0.0927,0.0558 -0.1416,0.0848 -0.0897,0.0698 -0.1855,0.1326 -0.2713,0.2134 -0.0927,0.0728 -0.1715,0.1645 -0.2543,0.2493 -0.0728,0.0968 -0.1566,0.1815 -0.2184,0.2843 -0.0718,0.0937 -0.1197,0.2014 -0.1775,0.2982 -0.0449,0.1037 -0.1037,0.1974 -0.1386,0.2962 -0.02,0.0488 -0.0409,0.0947 -0.0619,0.1406 -0.0169,0.0469 -0.0339,0.0917 -0.0498,0.1346 -0.0369,0.0868 -0.0629,0.1696 -0.0868,0.2434 -0.011,0.0379 -0.0259,0.0728 -0.0379,0.1047 -0.01,0.0329 -0.017,0.0638 -0.0259,0.0907 -0.0329,0.1107 -0.0609,0.1776 -0.0609,0.1776 l -0.0169,0.0428 c -0.0648,0.1546 -0.2354,0.2264 -0.382,0.1576 -0.0828,-0.0389 -0.1406,-0.1137 -0.1636,-0.2004 0,0 -0.0209,-0.0798 -0.0418,-0.2244 -0.012,-0.0718 -0.021,-0.1606 -0.018,-0.2633 0,-0.1018 -10e-4,-0.2194 0.0219,-0.3441 0.009,-0.0618 0.018,-0.1277 0.032,-0.1955 0.0159,-0.0658 0.0339,-0.1346 0.0558,-0.2034 0.0349,-0.1426 0.1037,-0.2793 0.1666,-0.4239 0.0788,-0.1356 0.1545,-0.2802 0.2553,-0.4099 0.0907,-0.1366 0.2024,-0.2593 0.3131,-0.381 0.1217,-0.1097 0.2384,-0.2244 0.37,-0.3151 0.1247,-0.1027 0.2663,-0.1706 0.395,-0.2474 0.1366,-0.0608 0.2643,-0.1286 0.3969,-0.1625 0.0658,-0.019 0.1277,-0.0389 0.1895,-0.0569 0.0618,-0.0149 0.1227,-0.0259 0.1795,-0.0349 0.1127,-0.0239 0.2264,-0.0329 0.3261,-0.0369 0.0489,-0.002 0.0948,-0.0039 0.1377,-0.006 0.0369,0.003 0.0708,0.005 0.0997,0.007 0.1217,0.0119 0.1915,0.0199 0.1915,0.0199 0.1566,0.015 0.2703,0.1616 0.2563,0.3271 -0.012,0.1367 -0.1087,0.2434 -0.2274,0.2694 z m 1.0661,0.0068 c -0.0349,0 -0.0708,-0.0069 -0.1047,-0.0219 l -0.0179,-0.0069 c -0.1456,-0.0589 -0.2174,-0.2314 -0.1636,-0.386 0.0549,-0.1546 0.2174,-0.2314 0.362,-0.1735 l 0.028,0.0119 c 0.1436,0.0619 0.2144,0.2354 0.1575,0.388 -0.0438,0.1167 -0.1506,0.1884 -0.2613,0.1884 z"
         fill="#5f4a8b"
         id="path6" />
    </g>
    <mask
       id="mask3_6_9"
       maskUnits="userSpaceOnUse"
       x="-3"
       y="-10"
       width="104"
       height="103">
      <path
         d="M 100.063,-9.81336 H -2.06241 V 92.3119 H 100.063 Z"
         fill="#ffffff"
         id="path7" />
    </mask>
    <g
       mask="url(#mask3_6_9)"
       id="g8">
      <path
         d="m 94.081,60.323 c -1.3374,0 -2.4205,1.1519 -2.4205,2.573 0,1.4212 1.0831,2.5731 2.4205,2.5731 1.3364,0 2.4195,-1.1519 2.4195,-2.5731 0,-1.4211 -1.0831,-2.573 -2.4195,-2.573 z m 0.006,1.2117 c 0,0 -0.0219,0.006 -0.0589,0.015 -0.0199,0.004 -0.0408,0.009 -0.0578,0.0169 -0.0199,0.006 -0.0409,0.011 -0.0678,0.022 -0.1037,0.0319 -0.2344,0.0867 -0.3561,0.1575 -0.0299,0.019 -0.0598,0.0349 -0.0887,0.0559 -0.0289,0.0179 -0.0549,0.0409 -0.0828,0.0588 -0.0529,0.0399 -0.1037,0.0758 -0.1486,0.1067 -0.0449,0.031 -0.0848,0.0569 -0.1137,0.0748 -0.0289,0.018 -0.0479,0.027 -0.0479,0.027 l -0.0259,0.0109 c -0.1127,0.0489 -0.2413,-0.0079 -0.2872,-0.1266 -0.019,-0.0489 -0.021,-0.0998 -0.01,-0.1466 0,0 0.0269,-0.1097 0.1207,-0.2364 0.0448,-0.0648 0.1077,-0.1306 0.1835,-0.1925 0.0757,-0.0598 0.1645,-0.1137 0.2553,-0.1595 0.0458,-0.022 0.0927,-0.0419 0.1396,-0.0579 0.0469,-0.0199 0.0947,-0.0299 0.1406,-0.0419 0.0918,-0.0229 0.1785,-0.0329 0.2543,-0.0349 0.0359,-10e-4 0.0718,0 0.1048,10e-4 0.0339,0.0021 0.0588,0.004 0.0757,0.008 0.0369,0.0069 0.0579,0.011 0.0579,0.011 0.1137,0.0219 0.1885,0.1356 0.1675,0.2553 -0.0139,0.0887 -0.0777,0.1556 -0.1545,0.1755 z"
         fill="#5f4a8b"
         id="path8" />
    </g>
  </g>
  <g
     filter="url(#filter0_d_6_9)"
     id="g10">
    <path
       d="m 25.2,35.185 h -3.9 l 5.3,-14 h 4 l 5.3,14 H 32 l -0.9,-2.5 h -5 z m 1.8,-5.1 h 3.2 l -1.6,-4.7 z m 17.2992,5.1 h -7.6 v -10.6 h 7 c 0.8934,0 1.6134,0.2667 2.16,0.8 0.56,0.52 0.84,1.1067 0.84,1.76 0,0.6533 -0.14,1.1867 -0.42,1.6 -0.28,0.4133 -0.6733,0.6933 -1.18,0.84 0.6,0.1067 1.1134,0.4 1.54,0.88 0.44,0.48 0.66,1.12 0.66,1.92 0,0.8 -0.28,1.4667 -0.84,2 -0.5466,0.5333 -1.2666,0.8 -2.16,0.8 z m -0.5,-3.4 c 0,-0.2 -0.0666,-0.3667 -0.2,-0.5 -0.1333,-0.1333 -0.3,-0.2 -0.5,-0.2 h -2.9 v 1.7 h 2.9 c 0.2,0 0.3667,-0.0667 0.5,-0.2 0.1334,-0.1333 0.2,-0.3 0.2,-0.5 z m -0.6,-4.1 c 0,-0.2 -0.0666,-0.3667 -0.2,-0.5 -0.1333,-0.1333 -0.3,-0.2 -0.5,-0.2 h -2.3 v 1.8 h 2.3 c 0.2,0 0.3667,-0.0667 0.5,-0.2 0.1334,-0.1333 0.2,-0.3 0.2,-0.5 z m 11.1016,-0.4 v 7.9 h -3.5 v -7.9 h -3.3 v -2.7 h 10.1 v 2.7 z m 15.3078,4.9 c 0,1 -0.2867,1.7867 -0.86,2.36 -0.56,0.56 -1.34,0.84 -2.34,0.84 h -4.6 c -1,0 -1.7867,-0.28 -2.36,-0.84 -0.56,-0.5733 -0.84,-1.36 -0.84,-2.36 v -4.6 c 0,-1 0.28,-1.78 0.84,-2.34 0.5733,-0.5733 1.36,-0.86 2.36,-0.86 h 4.6 c 1,0 1.78,0.2867 2.34,0.86 0.5733,0.56 0.86,1.34 0.86,2.34 z m -3.5,-4.3 c 0,-0.5333 -0.2667,-0.8 -0.8,-0.8 h -2.4 c -0.5333,0 -0.8,0.2667 -0.8,0.8 v 4 c 0,0.5333 0.2667,0.8 0.8,0.8 h 2.4 c 0.5333,0 0.8,-0.2667 0.8,-0.8 z"
       fill="#ffffff"
       id="path9" />
  </g>
  <g
     filter="url(#filter1_d_6_9)"
     id="g11">
    <path
       d="m 24.1206,51.73 -3.08,5.5 h -3.08 l -3.08,-5.5 v 8.58 h -3.96 v -15.4 h 4.18 l 4.4,8.14 4.4,-8.14 h 4.18 v 15.4 h -3.96 z m 13.9786,-3.08 h 4.07 v 11.66 h -3.85 v -6.38 l -3.74,6.38 h -4.07 V 48.65 h 3.85 v 6.38 z m 10.8874,-1.1 c -1.9067,0 -2.86,-0.9533 -2.86,-2.86 v -0.66 h 2.86 v 0.55 c 0,0.22 0.0733,0.4033 0.22,0.55 0.1467,0.1467 0.33,0.22 0.55,0.22 h 0.66 c 0.22,0 0.4033,-0.0733 0.55,-0.22 0.1467,-0.1467 0.22,-0.33 0.22,-0.55 v -0.55 h 2.86 v 0.66 c 0,1.9067 -0.9533,2.86 -2.86,2.86 z m 2.97,1.1 h 4.07 v 11.66 h -3.85 v -6.38 l -3.74,6.38 h -4.07 V 48.65 h 3.85 v 6.38 z m 11.7674,7.26 h -1.65 v 4.4 h -3.85 V 48.65 h 3.85 v 4.29 h 1.76 l 1.21,-2.42 c 0.44,-0.9387 1.1294,-1.5767 2.068,-1.914 0.3374,-0.1173 0.66,-0.176 0.968,-0.176 0.4987,0 0.9534,0.0367 1.364,0.11 l 0.55,0.11 v 2.97 h -0.77 c -0.4986,0 -0.8653,0.22 -1.1,0.66 l -1.1,2.2 3.3,5.83 h -4.18 z m 12.3114,1.54 c 0.7774,0 1.6574,-0.1467 2.64,-0.44 v -1.32 h -3.19 c -0.22,0 -0.4033,0.0733 -0.55,0.22 -0.1466,0.1467 -0.22,0.33 -0.22,0.55 v 0.22 c 0,0.22 0.0734,0.4033 0.22,0.55 0.1467,0.1467 0.33,0.22 0.55,0.22 z m -4.07,-8.58 c 2.684,-0.2933 5.104,-0.44 7.26,-0.44 0.9974,0 1.7967,0.3007 2.398,0.902 0.6014,0.6013 0.902,1.4007 0.902,2.398 v 8.58 h -3.41 l -0.22,-1.1 c -0.6893,0.4547 -1.4006,0.792 -2.134,1.012 -0.7186,0.2053 -1.3273,0.308 -1.826,0.308 h -0.77 c -0.9973,0 -1.7966,-0.3007 -2.398,-0.902 -0.6013,-0.6013 -0.902,-1.4007 -0.902,-2.398 v -0.99 c 0,-0.9973 0.3007,-1.7967 0.902,-2.398 0.6014,-0.6013 1.4007,-0.902 2.398,-0.902 h 4.51 v -0.88 c 0,-0.22 -0.0733,-0.4033 -0.22,-0.55 -0.1466,-0.1467 -0.33,-0.22 -0.55,-0.22 -0.9533,0 -2.0093,0.044 -3.168,0.132 -1.144,0.088 -2.068,0.154 -2.772,0.198 z"
       fill="#ffffff"
       id="path10" />
  </g>
  <defs
     id="defs15">
    <filter
       id="filter0_d_6_9"
       x="11.3"
       y="11.185"
       width="68.308601"
       height="34.200001"
       filterUnits="userSpaceOnUse"
       color-interpolation-filters="sRGB">
      <feFlood
         flood-opacity="0"
         result="BackgroundImageFix"
         id="feFlood11" />
      <feColorMatrix
         in="SourceAlpha"
         type="matrix"
         values="0 0 0 0 0 0 0 0 0 0 0 0 0 0 0 0 0 0 127 0"
         result="hardAlpha"
         id="feColorMatrix11" />
      <feOffset
         id="feOffset11" />
      <feGaussianBlur
         stdDeviation="5"
         id="feGaussianBlur11" />
      <feComposite
         in2="hardAlpha"
         operator="out"
         id="feComposite11" />
      <feColorMatrix
         type="matrix"
         values="0 0 0 0 0 0 0 0 0 0 0 0 0 0 0 0 0 0 0.5 0"
         id="feColorMatrix12" />
      <feBlend
         mode="normal"
         in2="BackgroundImageFix"
         result="effect1_dropShadow_6_9"
         id="feBlend12" />
      <feBlend
         mode="normal"
         in="SourceGraphic"
         in2="effect1_dropShadow_6_9"
         result="shape"
         id="feBlend13" />
    </filter>
    <filter
       id="filter1_d_6_9"
       x="0.92059302"
       y="34.029999"
       width="91.604797"
       height="36.5"
       filterUnits="userSpaceOnUse"
       color-interpolation-filters="sRGB">
      <feFlood
         flood-opacity="0"
         result="BackgroundImageFix"
         id="feFlood13" />
      <feColorMatrix
         in="SourceAlpha"
         type="matrix"
         values="0 0 0 0 0 0 0 0 0 0 0 0 0 0 0 0 0 0 127 0"
         result="hardAlpha"
         id="feColorMatrix13" />
      <feOffset
         id="feOffset13" />
      <feGaussianBlur
         stdDeviation="5"
         id="feGaussianBlur13" />
      <feComposite
         in2="hardAlpha"
         operator="out"
         id="feComposite13" />
      <feColorMatrix
         type="matrix"
         values="0 0 0 0 0 0 0 0 0 0 0 0 0 0 0 0 0 0 0.5 0"
         id="feColorMatrix14" />
      <feBlend
         mode="normal"
         in2="BackgroundImageFix"
         result="effect1_dropShadow_6_9"
         id="feBlend14" />
      <feBlend
         mode="normal"
         in="SourceGraphic"
         in2="effect1_dropShadow_6_9"
         result="shape"
         id="feBlend15" />
    </filter>
    <clipPath
       id="clip0_6_9">
      <rect
         width="95"
         height="82.497803"
         fill="#ffffff"
         transform="translate(1.5)"
         id="rect15"
         x="0"
         y="0" />
    </clipPath>
  </defs>
</svg>
