<svg width="97" height="83" viewBox="0 0 97 83" fill="none" xmlns="http://www.w3.org/2000/svg">
<g clip-path="url(#clip0_6_9)">
<mask id="mask0_6_9" style="mask-type:luminance" maskUnits="userSpaceOnUse" x="-3" y="-10" width="104" height="103">
<path d="M100.063 -9.81336H-2.06241V92.3119H100.063V-9.81336Z" fill="white"/>
</mask>
<g mask="url(#mask0_6_9)">
<path d="M83.0097 25.2628C73.1084 24.9032 72.4142 17.9819 72.4073 13.1813C72.3983 8.3792 68.7501 4.49664 64.2382 4.49664C62.097 4.49664 60.1502 5.37378 58.6932 6.80643C51.0786 12.924 46.2177 7.16397 44.82 5.09403C44.7188 4.92549 44.6135 4.76093 44.5043 4.59837C44.436 4.48417 44.4011 4.41885 44.4011 4.41885L44.3971 4.43829C42.4394 1.64531 39.2664 -0.127919 35.709 0.00721696C30.3579 0.209174 26.044 4.80082 25.7428 10.485C25.6675 11.9127 25.6735 12.8317 26.795 15.8835C27.915 18.9348 25.5578 21.1478 22.4342 19.1343C19.897 17.4982 16.948 16.0949 13.7351 16.1498C6.93339 16.2675 1.43917 22.2673 1.50051 29.4979C1.53292 33.2847 3.06181 36.6905 5.48828 39.0811C7.05706 40.6255 7.42058 43.1442 6.35645 45.1159C5.40052 46.8891 4.87244 48.9685 4.87244 50.8634C4.87244 56.9451 9.50897 61.8748 15.2291 61.8748C22.5718 61.8748 28.3214 63.2222 28.3563 74.7172C28.3697 78.9818 31.6684 82.5581 35.6796 82.4973C38.9587 82.4494 41.7079 80.0748 42.5381 76.8585L42.5396 76.8605C43.9354 72.586 49.2396 68.2028 60.245 75.6986C60.3497 75.7734 60.4564 75.8472 60.5652 75.9171C60.5662 75.9181 60.5662 75.9181 60.5672 75.9191C61.6892 76.6412 63.0007 77.061 64.4049 77.071C68.3762 77.1009 71.7222 73.7789 71.9556 69.5642C71.9885 68.9798 71.9606 68.4083 71.8798 67.8558C71.2315 58.7154 82.9201 62.205 83.4616 62.3995C83.4626 62.4005 83.4626 62.3995 83.4646 62.4005C83.9802 62.5989 84.5457 62.6867 85.1371 62.6358C87.0569 62.4673 88.6008 60.8028 88.7334 58.7583C88.8541 56.8963 87.8268 55.2697 86.3289 54.6015L86.3299 54.6005C77.9424 50.8007 88.7284 39.2029 88.7284 39.2029L88.7264 39.2039C90.0209 37.7229 90.8128 35.7397 90.8128 33.5596C90.8128 28.9769 87.3191 25.2628 83.0097 25.2628ZM8.3815 52.9388C8.07233 52.9388 7.82101 52.6725 7.81901 52.3444V52.3025C7.81901 51.9724 8.07083 51.7051 8.3815 51.7051C8.69216 51.7051 8.94299 51.9724 8.94299 52.3025V52.3374C8.94544 52.6666 8.69515 52.9368 8.38449 52.9388L8.3815 52.9388ZM14.1241 58.5298C14.0792 58.5986 14.0198 58.6525 13.9555 58.6894C13.9555 58.6894 13.9281 58.7043 13.8757 58.7283C13.8229 58.7532 13.7461 58.7801 13.6448 58.817C13.595 58.833 13.5386 58.8519 13.4778 58.8669C13.4164 58.8799 13.3501 58.8908 13.2783 58.9018C13.1357 58.9197 12.9711 58.9427 12.7941 58.9287C12.7054 58.9267 12.6146 58.9167 12.5189 58.9108C12.4246 58.8948 12.3269 58.8778 12.2276 58.8549C12.0252 58.818 11.8252 58.7352 11.6168 58.6554C11.5136 58.6116 11.4113 58.5597 11.3076 58.5108C11.2553 58.4859 11.2034 58.461 11.151 58.434C11.1012 58.4041 11.0503 58.3732 10.999 58.3443C10.8987 58.2815 10.7935 58.2266 10.6958 58.1568C10.5985 58.087 10.5018 58.0162 10.4036 57.9454C10.3078 57.8745 10.2176 57.7928 10.1268 57.714C10.035 57.6372 9.94928 57.5544 9.8665 57.4686C9.69695 57.3021 9.54586 57.1226 9.40474 56.9451C9.33443 56.8563 9.2731 56.7625 9.21076 56.6728C9.14943 56.582 9.08809 56.4953 9.03823 56.4035C8.93401 56.223 8.83826 56.0535 8.76746 55.8849C8.72956 55.8021 8.69415 55.7243 8.66224 55.6465C8.63181 55.5648 8.6029 55.489 8.57947 55.4162C8.55503 55.3434 8.53259 55.2765 8.51115 55.2137C8.4927 55.1529 8.48273 55.105 8.47126 55.0551C8.42838 54.8666 8.40794 54.7559 8.40794 54.7559C8.36007 54.4996 8.51614 54.2523 8.7575 54.2004C8.92804 54.1645 9.09559 54.2373 9.19532 54.373C9.19532 54.373 9.25965 54.4627 9.36686 54.6203C9.39478 54.6582 9.42221 54.7081 9.45362 54.749C9.48454 54.7869 9.51845 54.8287 9.55485 54.8736C9.59076 54.9175 9.62665 54.9644 9.66405 55.0132C9.70595 55.0641 9.75082 55.117 9.79819 55.1718C9.88695 55.2845 9.99317 55.3952 10.1044 55.5129C10.1567 55.5747 10.2176 55.6306 10.2789 55.6874C10.3412 55.7453 10.3966 55.8091 10.4639 55.864C10.5302 55.9208 10.5965 55.9767 10.6619 56.0355C10.7262 56.0963 10.802 56.1442 10.8713 56.2C10.9396 56.2569 11.0114 56.3117 11.0867 56.3586C11.1625 56.4075 11.2328 56.4633 11.3096 56.5102C11.4627 56.602 11.6128 56.6957 11.7699 56.7725L11.8846 56.8333L12.0018 56.8852C12.0796 56.9201 12.1539 56.958 12.2306 56.9889C12.3857 57.0408 12.5308 57.1096 12.674 57.1585C12.8156 57.2163 12.9507 57.2722 13.0744 57.323C13.202 57.3799 13.3192 57.4327 13.4224 57.4786C13.4758 57.5055 13.5257 57.5305 13.5715 57.5564C13.6184 57.5763 13.6623 57.5983 13.7012 57.6182C13.781 57.6631 13.8443 57.694 13.8882 57.7249C13.9321 57.7519 13.9555 57.7688 13.9555 57.7688L14.0054 57.8067C14.2263 57.9713 14.2791 58.2964 14.1241 58.5298ZM36.0276 2.93584C36.081 2.69499 36.3069 2.54489 36.5333 2.59974L36.5722 2.61021C36.799 2.66956 36.9367 2.9114 36.8818 3.15126C36.8345 3.3567 36.6629 3.49334 36.4729 3.49334C36.4395 3.49334 36.4056 3.48935 36.3732 3.48137L36.3433 3.47442C36.1169 3.41807 35.9758 3.17719 36.0276 2.93584ZM33.9487 79.7687C33.9447 79.7707 33.9382 79.7737 33.9342 79.7756C33.9342 79.7756 33.8934 79.7926 33.8425 79.7936C33.7911 79.7956 33.7288 79.7796 33.673 79.7497C33.6156 79.7208 33.5628 79.6829 33.5258 79.645C33.489 79.6091 33.4685 79.5742 33.4685 79.5742C33.3643 79.3967 33.4156 79.1633 33.5822 79.0526C33.6146 79.0316 33.6515 79.0167 33.6859 79.0057C33.6859 79.0057 33.7238 78.9967 33.7752 78.9977C33.825 78.9987 33.8884 79.0107 33.9477 79.0326C34.0091 79.0526 34.0629 79.0875 34.0988 79.1274C34.1342 79.1653 34.1527 79.2082 34.1527 79.2082C34.2419 79.4226 34.1506 79.6739 33.9487 79.7687ZM34.8573 3.37915C34.8104 3.39162 34.7536 3.3996 34.6992 3.41605C34.6503 3.4325 34.596 3.45046 34.5386 3.4709C34.4818 3.49035 34.4224 3.5088 34.3591 3.52725C34.2948 3.54969 34.2255 3.57911 34.1547 3.60604C34.0834 3.63547 34.0091 3.6609 33.9343 3.69381C33.86 3.72822 33.7842 3.76511 33.7044 3.80202C33.6261 3.83343 33.5473 3.87732 33.4685 3.92269C33.3897 3.96857 33.3074 4.00647 33.2277 4.05634C33.0701 4.16155 32.904 4.2563 32.7504 4.38096C32.5884 4.48817 32.4453 4.63029 32.2932 4.75595C32.1521 4.89658 32.0069 5.03071 31.8808 5.18181L31.7835 5.29002C31.7516 5.32692 31.7242 5.36632 31.6938 5.40421C31.6354 5.48101 31.5751 5.55331 31.5203 5.62911C31.421 5.78818 31.3088 5.9293 31.2211 6.0784C31.1747 6.1517 31.1238 6.21852 31.0779 6.28684C31.0341 6.35615 30.9952 6.42446 30.9503 6.48779C30.8605 6.61445 30.7857 6.73613 30.7134 6.84533C30.6755 6.89819 30.6406 6.94955 30.6052 6.99643C30.5753 7.04429 30.5449 7.08818 30.5184 7.12907C30.4601 7.20886 30.4152 7.27418 30.3783 7.31706C30.3444 7.36095 30.323 7.38338 30.323 7.38338L30.2846 7.42528C30.117 7.60629 29.8433 7.60729 29.6737 7.42926C29.6084 7.36095 29.5675 7.27517 29.552 7.18541C29.552 7.18541 29.546 7.15051 29.5411 7.08718C29.5336 7.02285 29.5316 6.9311 29.5276 6.81043C29.5276 6.75158 29.5266 6.68476 29.5297 6.61346C29.5357 6.54215 29.5471 6.46635 29.5581 6.38457C29.583 6.22251 29.6114 6.03651 29.6778 5.84552C29.7062 5.74829 29.7431 5.65055 29.778 5.54633C29.8229 5.44709 29.8687 5.34487 29.9206 5.24214C30.0158 5.03071 30.159 4.83424 30.2976 4.6273C30.3724 4.52707 30.4537 4.42983 30.5335 4.33109C30.5733 4.28073 30.6132 4.22987 30.6561 4.18299L30.7908 4.04287C30.883 3.95211 30.9688 3.85188 31.0685 3.76811C31.1677 3.68434 31.267 3.59956 31.3657 3.51479C31.4679 3.43451 31.5761 3.3617 31.6814 3.2874C31.7846 3.2106 31.8958 3.14628 32.005 3.08295C32.2229 2.9523 32.4483 2.85108 32.6672 2.75633C32.7774 2.71146 32.8886 2.67654 32.9968 2.63965C33.104 2.60325 33.2103 2.56834 33.3165 2.54689C33.4217 2.52346 33.5239 2.50002 33.6216 2.47758C33.7209 2.45714 33.8191 2.45065 33.9119 2.43868C34.0046 2.42822 34.0914 2.41625 34.1772 2.41125C34.2664 2.40676 34.3502 2.4038 34.4275 2.40482C34.5053 2.40482 34.5786 2.40482 34.6449 2.40482C34.7097 2.40778 34.7606 2.41529 34.8105 2.42028C35.0079 2.44472 35.1211 2.46216 35.1211 2.46216C35.3415 2.49607 35.4946 2.71448 35.4632 2.94935C35.4388 3.12588 35.3161 3.26301 35.162 3.3039C35.162 3.3039 35.0518 3.33328 34.8573 3.37915ZM38.8087 79.282C38.8087 79.282 38.7015 79.5453 38.4197 79.7627C38.3514 79.8196 38.2716 79.8724 38.1849 79.9193C38.0981 79.9692 38.0009 80.0061 37.8996 80.044C37.7989 80.0769 37.6947 80.1168 37.5855 80.1437C37.4773 80.1756 37.3656 80.1985 37.2534 80.2215C37.03 80.2624 36.8041 80.2853 36.5917 80.2873C36.3792 80.2883 36.1823 80.2753 36.0157 80.2444C35.9329 80.2314 35.8551 80.2195 35.7858 80.2015C35.7155 80.1846 35.6572 80.1706 35.6143 80.1557C35.5255 80.1257 35.4742 80.1058 35.4742 80.1058C35.3181 80.045 35.2373 79.8595 35.2956 79.6929C35.3306 79.5912 35.4108 79.5184 35.5031 79.4934C35.5031 79.4934 35.5559 79.4785 35.6472 79.4585C35.6951 79.4496 35.7459 79.4366 35.8023 79.4216C35.8606 79.4087 35.925 79.3927 35.9953 79.3758C36.0666 79.3588 36.1434 79.3389 36.2251 79.3199C36.3059 79.301 36.3892 79.276 36.4765 79.2551C36.5622 79.2291 36.651 79.2082 36.7408 79.1793C36.8305 79.1573 36.9193 79.1244 37.0095 79.0985C37.1881 79.0407 37.3646 78.9788 37.5291 78.918C37.6917 78.8502 37.8478 78.8033 37.9909 78.7744C38.0622 78.7614 38.1305 78.7524 38.1919 78.7455C38.2542 78.7405 38.3135 78.7415 38.3594 78.7385C38.4566 78.7405 38.52 78.7515 38.52 78.7515L38.5394 78.7544C38.7344 78.7883 38.866 78.9848 38.8341 79.1923C38.8291 79.2222 38.8202 79.2541 38.8087 79.282ZM67.9393 73.2722C67.9393 73.2722 67.8974 73.3619 67.8077 73.5046C67.7628 73.5774 67.702 73.6591 67.6262 73.7449C67.5514 73.8327 67.4626 73.9294 67.3559 74.0182C67.304 74.065 67.2472 74.1099 67.1883 74.1578C67.1275 74.1997 67.0637 74.2456 66.9969 74.2875C66.93 74.3323 66.8602 74.3742 66.7864 74.4101C66.7126 74.449 66.6358 74.4869 66.558 74.5238C66.3985 74.5876 66.2369 74.6634 66.0644 74.7143C65.8948 74.7761 65.7163 74.817 65.5398 74.8599C65.3613 74.8938 65.1837 74.9267 65.0062 74.9427C64.8287 74.9626 64.6532 74.9656 64.4846 74.9676C64.3161 74.9616 64.1535 74.9566 63.9999 74.9357C63.8463 74.9167 63.7027 74.8988 63.5721 74.8649C63.4424 74.838 63.3208 74.808 63.213 74.7721C63.1592 74.7552 63.1093 74.7402 63.0634 74.7263C63.0196 74.7103 62.9837 74.6954 62.9488 74.6814C62.8121 74.6236 62.7353 74.5896 62.7353 74.5896C62.5857 74.5208 62.5169 74.3373 62.5807 74.1787C62.6286 74.0581 62.7393 73.9863 62.856 73.9883C62.856 73.9883 62.9398 73.9903 63.0874 73.9983C63.1223 73.9993 63.1642 74.0052 63.2061 74.0052C63.246 74.0052 63.2898 74.0042 63.3357 74.0032C63.3826 74.0022 63.4315 74.0042 63.4813 74.0052C63.5342 74.0032 63.589 74.0012 63.6479 73.9992C63.7636 73.9962 63.8872 73.9882 64.0189 73.9773C64.1495 73.9703 64.2862 73.9443 64.4268 73.9294C64.5664 73.9025 64.712 73.8855 64.8556 73.8476C65.0022 73.8217 65.1458 73.7738 65.2905 73.7389C65.4331 73.69 65.5767 73.6481 65.7133 73.5933C65.8539 73.5444 65.9846 73.4806 66.1142 73.4277C66.2389 73.3609 66.3656 73.3101 66.4793 73.2492C66.5979 73.1954 66.7106 73.1435 66.8134 73.0946C66.9201 73.0478 67.0178 73.0059 67.1046 72.968C67.1953 72.9341 67.2761 72.9031 67.3419 72.8762C67.4766 72.8264 67.5643 72.8064 67.5643 72.8064L67.5893 72.7995C67.7588 72.7606 67.9264 72.8733 67.9633 73.0528C67.9802 73.1296 67.9693 73.2064 67.9393 73.2722ZM87.1815 31.0347C87.1685 31.0173 87.1546 30.9949 87.1396 30.9764C87.1257 30.959 87.1097 30.9405 87.0928 30.9216C87.0598 30.8817 87.0229 30.8358 86.983 30.7864C86.9432 30.7366 86.8993 30.6822 86.8524 30.6283C86.8085 30.571 86.7557 30.5171 86.7078 30.4568C86.6539 30.4015 86.6051 30.3401 86.5492 30.2843C86.4984 30.2239 86.4375 30.1716 86.3847 30.1127C86.3268 30.0584 86.273 30.001 86.2141 29.9502C86.1583 29.8993 86.1004 29.8479 86.0466 29.7991C85.9887 29.7552 85.9389 29.7058 85.89 29.659C85.8421 29.6101 85.7992 29.5592 85.7603 29.5089C85.7224 29.458 85.6895 29.4046 85.6586 29.3568C85.6287 29.3079 85.6068 29.2555 85.5848 29.2181C85.5659 29.1738 85.5499 29.1403 85.5399 29.1129C85.5299 29.086 85.526 29.07 85.526 29.07L85.511 29.0167C85.4432 28.7748 85.5708 28.5205 85.7952 28.4427C85.7952 28.4427 85.8112 28.4367 85.8401 28.4318C85.87 28.4233 85.9099 28.4193 85.9638 28.4133C86.0675 28.4058 86.2141 28.4133 86.3707 28.4692C86.4505 28.4951 86.5313 28.5345 86.613 28.5828C86.6958 28.6297 86.7726 28.696 86.8514 28.7644C86.9272 28.8362 87.008 28.9075 87.0798 28.9912C87.1566 29.071 87.2254 29.1598 87.2942 29.2486C87.4268 29.4301 87.5405 29.6255 87.6283 29.8175C87.6702 29.9143 87.7101 30.0085 87.741 30.1013C87.7709 30.193 87.7969 30.2798 87.8148 30.3636C87.8348 30.4433 87.8497 30.5231 87.8597 30.5954C87.8697 30.6682 87.8766 30.7271 87.8766 30.77C87.8787 30.8602 87.8776 30.9131 87.8776 30.9131C87.8707 31.1175 87.7101 31.2786 87.5176 31.2716C87.4169 31.2687 87.3271 31.2198 87.2663 31.145C87.2663 31.145 87.2334 31.1051 87.1815 31.0347ZM88.3434 32.4654C88.3244 32.6983 88.1399 32.8738 87.9235 32.8738C87.9115 32.8738 87.8996 32.8728 87.8856 32.8718C87.6542 32.8503 87.4827 32.6319 87.5036 32.3856L87.9235 32.4255L87.5036 32.3766C87.5036 32.3756 87.5046 32.3611 87.5066 32.3601C87.5265 32.1143 87.732 31.9303 87.9634 31.9547C88.1957 31.9772 88.3663 32.1946 88.3453 32.4419L87.9245 32.4145L88.3434 32.4654Z" fill="#5F4A8B"/>
</g>
<mask id="mask1_6_9" style="mask-type:luminance" maskUnits="userSpaceOnUse" x="-3" y="-10" width="104" height="103">
<path d="M100.063 -9.81336H-2.06241V92.3119H100.063V-9.81336Z" fill="white"/>
</mask>
<g mask="url(#mask1_6_9)">
<path d="M18.2629 11.0844C19.4058 11.0844 20.3318 10.1001 20.3318 8.88484C20.3318 7.6706 19.4058 6.68575 18.2629 6.68575C17.12 6.68575 16.194 7.6706 16.194 8.88484C16.194 10.1001 17.12 11.0844 18.2629 11.0844ZM17.1444 7.72845C17.2347 7.60628 17.3927 7.48062 17.5683 7.39285C17.6132 7.3714 17.658 7.35196 17.7034 7.33551C17.7473 7.31606 17.7932 7.30558 17.837 7.29262C17.9248 7.27118 18.0086 7.25872 18.0799 7.25573C18.1158 7.25277 18.1507 7.25368 18.1811 7.25473C18.213 7.25373 18.2375 7.25573 18.2549 7.25769C18.2913 7.2627 18.3128 7.26617 18.3128 7.26617C18.3975 7.27714 18.4579 7.35892 18.4469 7.44868C18.4384 7.52148 18.3866 7.57633 18.3222 7.5898C18.3222 7.5898 18.3008 7.59378 18.2639 7.60077C18.2445 7.60281 18.223 7.60822 18.2036 7.61324C18.1821 7.61824 18.1597 7.62324 18.1313 7.63268C18.0221 7.6621 17.8819 7.71446 17.7533 7.78876C17.6236 7.86157 17.5089 7.95631 17.4182 8.02562C17.3723 8.06153 17.3334 8.09094 17.307 8.11239C17.2795 8.13283 17.2611 8.1443 17.2611 8.1443L17.2496 8.15125C17.1723 8.19712 17.0751 8.1687 17.0312 8.08593C17.0078 8.04204 17.0048 7.99218 17.0188 7.9473C17.0188 7.9473 17.0517 7.84812 17.1444 7.72845Z" fill="#5F4A8B"/>
</g>
<mask id="mask2_6_9" style="mask-type:luminance" maskUnits="userSpaceOnUse" x="-3" y="-10" width="104" height="103">
<path d="M100.063 -9.81336H-2.06241V92.3119H100.063V-9.81336Z" fill="white"/>
</mask>
<g mask="url(#mask2_6_9)">
<path d="M79.9061 67.3471C77.1585 67.3471 74.9305 69.3477 74.9305 71.8161C74.9305 74.2834 77.1585 76.284 79.9061 76.284C82.6547 76.284 84.8827 74.2834 84.8827 71.8161C84.8827 69.3477 82.6547 67.3471 79.9061 67.3471ZM79.4154 69.2819C79.4154 69.2819 79.3466 69.2958 79.2269 69.3218C79.197 69.3268 79.1651 69.3327 79.1282 69.3387C79.0993 69.3487 79.0674 69.3597 79.0344 69.3716C78.9676 69.3916 78.8938 69.4105 78.807 69.4504C78.7652 69.4674 78.7213 69.4833 78.6764 69.5013C78.6325 69.5222 78.5876 69.5462 78.5418 69.5691C78.4949 69.591 78.448 69.615 78.4031 69.6459C78.3573 69.6738 78.3104 69.7017 78.2615 69.7307C78.1718 69.8005 78.076 69.8633 77.9902 69.9441C77.8975 70.0169 77.8187 70.1086 77.7359 70.1934C77.6631 70.2902 77.5793 70.3749 77.5175 70.4777C77.4457 70.5714 77.3978 70.6791 77.34 70.7759C77.2951 70.8796 77.2363 70.9733 77.2014 71.0721C77.1814 71.1209 77.1605 71.1668 77.1395 71.2127C77.1226 71.2596 77.1056 71.3044 77.0897 71.3473C77.0528 71.4341 77.0268 71.5169 77.0029 71.5907C76.9919 71.6286 76.977 71.6635 76.965 71.6954C76.955 71.7283 76.948 71.7592 76.9391 71.7861C76.9062 71.8968 76.8782 71.9637 76.8782 71.9637L76.8613 72.0065C76.7965 72.1611 76.6259 72.2329 76.4793 72.1641C76.3965 72.1252 76.3387 72.0504 76.3157 71.9637C76.3157 71.9637 76.2948 71.8839 76.2739 71.7393C76.2619 71.6675 76.2529 71.5787 76.2559 71.476C76.2559 71.3742 76.2549 71.2566 76.2778 71.1319C76.2868 71.0701 76.2958 71.0042 76.3098 70.9364C76.3257 70.8706 76.3437 70.8018 76.3656 70.733C76.4005 70.5904 76.4693 70.4537 76.5322 70.3091C76.611 70.1735 76.6867 70.0289 76.7875 69.8992C76.8782 69.7626 76.9899 69.6399 77.1006 69.5182C77.2223 69.4085 77.339 69.2938 77.4706 69.2031C77.5953 69.1004 77.7369 69.0325 77.8656 68.9557C78.0022 68.8949 78.1299 68.8271 78.2625 68.7932C78.3283 68.7742 78.3902 68.7543 78.452 68.7363C78.5138 68.7214 78.5747 68.7104 78.6315 68.7014C78.7442 68.6775 78.8579 68.6685 78.9576 68.6645C79.0065 68.6625 79.0524 68.6606 79.0953 68.6585C79.1322 68.6615 79.1661 68.6635 79.195 68.6655C79.3167 68.6774 79.3865 68.6854 79.3865 68.6854C79.5431 68.7004 79.6568 68.847 79.6428 69.0125C79.6308 69.1492 79.5341 69.2559 79.4154 69.2819ZM80.4815 69.2887C80.4466 69.2887 80.4107 69.2818 80.3768 69.2668L80.3589 69.2599C80.2133 69.201 80.1415 69.0285 80.1953 68.8739C80.2502 68.7193 80.4127 68.6425 80.5573 68.7004L80.5853 68.7123C80.7289 68.7742 80.7997 68.9477 80.7428 69.1003C80.699 69.217 80.5922 69.2887 80.4815 69.2887Z" fill="#5F4A8B"/>
</g>
<mask id="mask3_6_9" style="mask-type:luminance" maskUnits="userSpaceOnUse" x="-3" y="-10" width="104" height="103">
<path d="M100.063 -9.81336H-2.06241V92.3119H100.063V-9.81336Z" fill="white"/>
</mask>
<g mask="url(#mask3_6_9)">
<path d="M94.081 60.323C92.7436 60.323 91.6605 61.4749 91.6605 62.896C91.6605 64.3172 92.7436 65.4691 94.081 65.4691C95.4174 65.4691 96.5005 64.3172 96.5005 62.896C96.5005 61.4749 95.4174 60.323 94.081 60.323ZM94.087 61.5347C94.087 61.5347 94.0651 61.5407 94.0281 61.5497C94.0082 61.5537 93.9873 61.5587 93.9703 61.5666C93.9504 61.5726 93.9294 61.5776 93.9025 61.5886C93.7988 61.6205 93.6681 61.6753 93.5464 61.7461C93.5165 61.7651 93.4866 61.781 93.4577 61.802C93.4288 61.8199 93.4028 61.8429 93.3749 61.8608C93.322 61.9007 93.2712 61.9366 93.2263 61.9675C93.1814 61.9985 93.1415 62.0244 93.1126 62.0423C93.0837 62.0603 93.0647 62.0693 93.0647 62.0693L93.0388 62.0802C92.9261 62.1291 92.7975 62.0723 92.7516 61.9536C92.7326 61.9047 92.7306 61.8538 92.7416 61.807C92.7416 61.807 92.7685 61.6973 92.8623 61.5706C92.9071 61.5058 92.97 61.44 93.0458 61.3781C93.1215 61.3183 93.2103 61.2644 93.3011 61.2186C93.3469 61.1966 93.3938 61.1767 93.4407 61.1607C93.4876 61.1408 93.5354 61.1308 93.5813 61.1188C93.6731 61.0959 93.7598 61.0859 93.8356 61.0839C93.8715 61.0829 93.9074 61.0839 93.9404 61.0849C93.9743 61.087 93.9992 61.0889 94.0161 61.0929C94.053 61.0998 94.074 61.1039 94.074 61.1039C94.1877 61.1258 94.2625 61.2395 94.2415 61.3592C94.2276 61.4479 94.1638 61.5148 94.087 61.5347Z" fill="#5F4A8B"/>
</g>
</g>
<g filter="url(#filter0_d_6_9)">
<path d="M25.2 35.185H21.3L26.6 21.185H30.6L35.9 35.185H32L31.1 32.685H26.1L25.2 35.185ZM27 30.085H30.2L28.6 25.385L27 30.085ZM44.2992 35.185H36.6992V24.585H43.6992C44.5926 24.585 45.3126 24.8517 45.8592 25.385C46.4192 25.905 46.6992 26.4917 46.6992 27.145C46.6992 27.7983 46.5592 28.3317 46.2792 28.745C45.9992 29.1583 45.6059 29.4383 45.0992 29.585C45.6992 29.6917 46.2126 29.985 46.6392 30.465C47.0792 30.945 47.2992 31.585 47.2992 32.385C47.2992 33.185 47.0192 33.8517 46.4592 34.385C45.9126 34.9183 45.1926 35.185 44.2992 35.185ZM43.7992 31.785C43.7992 31.585 43.7326 31.4183 43.5992 31.285C43.4659 31.1517 43.2992 31.085 43.0992 31.085H40.1992V32.785H43.0992C43.2992 32.785 43.4659 32.7183 43.5992 32.585C43.7326 32.4517 43.7992 32.285 43.7992 32.085V31.785ZM43.1992 27.685C43.1992 27.485 43.1326 27.3183 42.9992 27.185C42.8659 27.0517 42.6992 26.985 42.4992 26.985H40.1992V28.785H42.4992C42.6992 28.785 42.8659 28.7183 42.9992 28.585C43.1326 28.4517 43.1992 28.285 43.1992 28.085V27.685ZM54.3008 27.285V35.185H50.8008V27.285H47.5008V24.585H57.6008V27.285H54.3008ZM69.6086 32.185C69.6086 33.185 69.3219 33.9717 68.7486 34.545C68.1886 35.105 67.4086 35.385 66.4086 35.385H61.8086C60.8086 35.385 60.0219 35.105 59.4486 34.545C58.8886 33.9717 58.6086 33.185 58.6086 32.185V27.585C58.6086 26.585 58.8886 25.805 59.4486 25.245C60.0219 24.6717 60.8086 24.385 61.8086 24.385H66.4086C67.4086 24.385 68.1886 24.6717 68.7486 25.245C69.3219 25.805 69.6086 26.585 69.6086 27.585V32.185ZM66.1086 27.885C66.1086 27.3517 65.8419 27.085 65.3086 27.085H62.9086C62.3753 27.085 62.1086 27.3517 62.1086 27.885V31.885C62.1086 32.4183 62.3753 32.685 62.9086 32.685H65.3086C65.8419 32.685 66.1086 32.4183 66.1086 31.885V27.885Z" fill="white"/>
</g>
<g filter="url(#filter1_d_6_9)">
<path d="M24.1206 51.73L21.0406 57.23H17.9606L14.8806 51.73V60.31H10.9206V44.91H15.1006L19.5006 53.05L23.9006 44.91H28.0806V60.31H24.1206V51.73ZM38.0992 48.65H42.1692V60.31H38.3192V53.93L34.5792 60.31H30.5092V48.65H34.3592V55.03L38.0992 48.65ZM48.9866 47.55C47.0799 47.55 46.1266 46.5967 46.1266 44.69V44.03H48.9866V44.58C48.9866 44.8 49.0599 44.9833 49.2066 45.13C49.3533 45.2767 49.5366 45.35 49.7566 45.35H50.4166C50.6366 45.35 50.8199 45.2767 50.9666 45.13C51.1133 44.9833 51.1866 44.8 51.1866 44.58V44.03H54.0466V44.69C54.0466 46.5967 53.0933 47.55 51.1866 47.55H48.9866ZM51.9566 48.65H56.0266V60.31H52.1766V53.93L48.4366 60.31H44.3666V48.65H48.2166V55.03L51.9566 48.65ZM63.724 55.91H62.074V60.31H58.224V48.65H62.074V52.94H63.834L65.044 50.52C65.484 49.5813 66.1734 48.9433 67.112 48.606C67.4494 48.4887 67.772 48.43 68.08 48.43C68.5787 48.43 69.0334 48.4667 69.444 48.54L69.994 48.65V51.62H69.224C68.7254 51.62 68.3587 51.84 68.124 52.28L67.024 54.48L70.324 60.31H66.144L63.724 55.91ZM76.0354 57.45C76.8128 57.45 77.6928 57.3033 78.6754 57.01V55.69H75.4854C75.2654 55.69 75.0821 55.7633 74.9354 55.91C74.7888 56.0567 74.7154 56.24 74.7154 56.46V56.68C74.7154 56.9 74.7888 57.0833 74.9354 57.23C75.0821 57.3767 75.2654 57.45 75.4854 57.45H76.0354ZM71.9654 48.87C74.6494 48.5767 77.0694 48.43 79.2254 48.43C80.2228 48.43 81.0221 48.7307 81.6234 49.332C82.2248 49.9333 82.5254 50.7327 82.5254 51.73V60.31H79.1154L78.8954 59.21C78.2061 59.6647 77.4948 60.002 76.7614 60.222C76.0428 60.4273 75.4341 60.53 74.9354 60.53H74.1654C73.1681 60.53 72.3688 60.2293 71.7674 59.628C71.1661 59.0267 70.8654 58.2273 70.8654 57.23V56.24C70.8654 55.2427 71.1661 54.4433 71.7674 53.842C72.3688 53.2407 73.1681 52.94 74.1654 52.94H78.6754V52.06C78.6754 51.84 78.6021 51.6567 78.4554 51.51C78.3088 51.3633 78.1254 51.29 77.9054 51.29C76.9521 51.29 75.8961 51.334 74.7374 51.422C73.5934 51.51 72.6694 51.576 71.9654 51.62V48.87Z" fill="white"/>
</g>
<defs>
<filter id="filter0_d_6_9" x="11.3" y="11.185" width="68.3086" height="34.2" filterUnits="userSpaceOnUse" color-interpolation-filters="sRGB">
<feFlood flood-opacity="0" result="BackgroundImageFix"/>
<feColorMatrix in="SourceAlpha" type="matrix" values="0 0 0 0 0 0 0 0 0 0 0 0 0 0 0 0 0 0 127 0" result="hardAlpha"/>
<feOffset/>
<feGaussianBlur stdDeviation="5"/>
<feComposite in2="hardAlpha" operator="out"/>
<feColorMatrix type="matrix" values="0 0 0 0 0 0 0 0 0 0 0 0 0 0 0 0 0 0 0.5 0"/>
<feBlend mode="normal" in2="BackgroundImageFix" result="effect1_dropShadow_6_9"/>
<feBlend mode="normal" in="SourceGraphic" in2="effect1_dropShadow_6_9" result="shape"/>
</filter>
<filter id="filter1_d_6_9" x="0.920593" y="34.03" width="91.6048" height="36.5" filterUnits="userSpaceOnUse" color-interpolation-filters="sRGB">
<feFlood flood-opacity="0" result="BackgroundImageFix"/>
<feColorMatrix in="SourceAlpha" type="matrix" values="0 0 0 0 0 0 0 0 0 0 0 0 0 0 0 0 0 0 127 0" result="hardAlpha"/>
<feOffset/>
<feGaussianBlur stdDeviation="5"/>
<feComposite in2="hardAlpha" operator="out"/>
<feColorMatrix type="matrix" values="0 0 0 0 0 0 0 0 0 0 0 0 0 0 0 0 0 0 0.5 0"/>
<feBlend mode="normal" in2="BackgroundImageFix" result="effect1_dropShadow_6_9"/>
<feBlend mode="normal" in="SourceGraphic" in2="effect1_dropShadow_6_9" result="shape"/>
</filter>
<clipPath id="clip0_6_9">
<rect width="95" height="82.4978" fill="white" transform="translate(1.5)"/>
</clipPath>
</defs>
</svg>
